<?xml version="1.0" standalone="no"?>
<!DOCTYPE svg PUBLIC "-//W3C//DTD SVG 20010904//EN"
 "http://www.w3.org/TR/2001/REC-SVG-20010904/DTD/svg10.dtd">
<svg version="1.0" xmlns="http://www.w3.org/2000/svg"
 width="176.000000pt" height="105.000000pt" viewBox="0 0 176.000000 105.000000"
 preserveAspectRatio="xMidYMid meet">
<metadata>
Created by potrace 1.16, written by Peter Selinger 2001-2019
</metadata>
<g transform="translate(0.000000,105.000000) scale(0.100000,-0.100000)"
fill="#000000" stroke="none">
<path d="M683 922 c-24 -15 -45 -33 -48 -41 -5 -12 -3 -12 12 1 26 23 99 58
121 58 35 0 44 -22 19 -49 l-22 -25 29 22 c16 12 35 22 43 22 8 0 12 4 9 9 -4
5 4 7 16 4 18 -4 20 -2 8 5 -8 6 -26 8 -41 5 -15 -3 -30 0 -33 6 -12 19 -69
10 -113 -17z"/>
<path d="M935 919 c-90 -13 -107 -18 -99 -31 5 -8 2 -9 -10 -5 -9 4 -15 3 -12
-2 3 -4 -3 -16 -14 -26 -28 -26 -41 -82 -41 -182 0 -63 4 -90 16 -102 16 -18
11 -31 -11 -31 -7 0 -16 9 -19 21 -4 11 -9 19 -11 16 -3 -2 0 -16 5 -30 7 -18
7 -27 -2 -31 -7 -2 -2 -5 9 -5 12 -1 27 -8 35 -17 17 -21 89 -57 89 -44 0 5
-6 10 -14 10 -19 0 -76 49 -58 50 7 0 26 -10 42 -22 16 -11 44 -22 62 -24 l33
-3 -39 15 c-21 7 -45 19 -52 25 -16 13 -9 29 13 29 20 0 79 45 93 70 6 12 7
27 1 42 -7 17 -10 18 -10 6 -1 -10 -14 -33 -31 -51 -16 -19 -27 -37 -25 -41 3
-3 2 -4 -1 -1 -4 2 -19 -2 -35 -10 -33 -17 -39 -18 -39 -6 0 5 9 13 21 16 32
10 85 62 99 96 l13 31 13 -24 c12 -21 13 -15 14 50 0 74 -16 130 -47 164 -8
10 -19 15 -24 13 -4 -3 -10 -1 -14 4 -3 5 14 13 37 16 52 8 168 3 162 -7 -4
-7 35 -23 49 -20 4 1 7 -5 7 -13 0 -8 4 -15 9 -15 14 0 60 -100 61 -135 4 -56
0 -110 -8 -122 -6 -10 -15 -10 -40 -1 -25 10 -42 10 -79 0 -61 -16 -81 -37
-85 -87 -2 -35 -6 -41 -33 -47 -22 -5 -17 -6 18 -4 27 2 74 16 108 33 42 21
54 25 43 12 -47 -52 -198 -83 -238 -50 -14 11 -16 11 -16 -2 0 -15 57 -33 93
-29 9 1 17 -3 17 -8 0 -6 5 -10 10 -10 6 0 10 6 10 14 0 14 55 30 71 20 5 -3
8 0 7 8 -2 7 5 12 14 12 10 -1 15 2 13 7 -3 4 7 16 22 25 15 10 35 27 45 38
14 17 18 18 33 6 15 -12 15 -11 4 13 -9 21 -9 33 5 67 19 48 22 125 4 114 -8
-5 -9 3 -5 27 3 19 3 28 0 20 -3 -8 -15 5 -29 35 -29 59 -29 60 -6 43 14 -11
13 -10 -2 9 -21 24 -32 30 -20 10 4 -7 -8 3 -27 21 -29 28 -43 34 -89 36 -30
1 -82 -1 -115 -6z m190 -29 c3 -6 -1 -7 -9 -4 -18 7 -21 14 -7 14 6 0 13 -4
16 -10z m-175 -269 c0 -6 -12 -23 -26 -38 l-25 -28 23 37 c24 40 28 44 28 29z
m-153 -97 c-3 -3 -12 -4 -19 -1 -8 3 -5 6 6 6 11 1 17 -2 13 -5z"/>
<path d="M603 875 c4 -5 -3 -19 -15 -32 -12 -12 -20 -25 -17 -27 2 -2 14 9 27
25 17 21 19 29 10 35 -7 4 -10 3 -5 -1z"/>
<path d="M755 851 c-3 -5 -2 -12 3 -15 5 -3 9 1 9 9 0 17 -3 19 -12 6z"/>
<path d="M729 808 c-7 -13 -14 -59 -15 -103 l-3 -80 9 80 c9 90 17 118 33 108
6 -3 7 -1 3 5 -10 17 -14 15 -27 -10z"/>
<path d="M531 784 c0 -11 3 -14 6 -6 3 7 2 16 -1 19 -3 4 -6 -2 -5 -13z"/>
<path d="M535 710 c-12 -19 17 -83 58 -127 43 -47 84 -73 114 -73 10 1 1 7
-21 15 -21 7 -54 28 -72 46 -40 38 -79 113 -70 134 6 17 0 20 -9 5z"/>
<path d="M721 604 c0 -11 3 -14 6 -6 3 7 2 16 -1 19 -3 4 -6 -2 -5 -13z"/>
<path d="M680 550 c8 -5 24 -10 34 -10 26 0 18 6 -19 14 -22 5 -26 4 -15 -4z"/>
<path d="M450 251 c0 -33 3 -41 19 -41 48 0 56 73 9 78 -27 3 -28 1 -28 -37z
m48 2 c-2 -17 -10 -29 -20 -31 -14 -3 -18 3 -18 27 0 25 4 31 21 31 16 0 20
-5 17 -27z"/>
<path d="M790 250 c0 -33 3 -40 19 -40 18 0 51 24 51 36 0 20 -25 44 -45 44
-22 0 -25 -4 -25 -40z m53 18 c6 -19 -11 -48 -28 -48 -10 0 -15 10 -15 30 0
23 5 30 19 30 11 0 21 -6 24 -12z"/>
<path d="M979 288 c-6 -18 -5 -56 2 -68 6 -11 8 -8 9 13 0 15 4 27 9 27 5 0
12 -12 14 -27 4 -26 4 -26 6 5 1 26 -3 32 -20 32 -11 0 -17 5 -14 10 3 6 4 10
1 10 -3 0 -6 -1 -7 -2z"/>
<path d="M1270 281 c0 -5 -9 -11 -21 -14 -29 -8 -22 -51 9 -55 20 -3 22 1 22
37 0 23 -2 41 -5 41 -3 0 -5 -4 -5 -9z m0 -41 c0 -11 -7 -20 -15 -20 -8 0 -15
9 -15 20 0 11 7 20 15 20 8 0 15 -9 15 -20z"/>
<path d="M534 240 c1 -18 7 -25 21 -25 15 0 20 7 22 30 2 27 1 28 -5 6 -10
-33 -30 -38 -35 -9 -4 21 -4 21 -3 -2z"/>
<path d="M591 236 c1 -28 2 -29 8 -7 9 34 29 37 34 6 4 -24 4 -24 3 2 -1 22
-6 28 -23 29 -19 1 -23 -4 -22 -30z"/>
<path d="M662 240 c0 -19 2 -27 5 -17 2 9 2 25 0 35 -3 9 -5 1 -5 -18z"/>
<path d="M691 238 c2 -31 2 -31 6 -5 5 33 20 35 33 5 5 -13 9 -18 9 -11 2 24
-12 43 -30 43 -15 0 -19 -7 -18 -32z"/>
<path d="M871 251 c-12 -22 9 -47 31 -38 8 4 7 6 -4 6 -22 1 -24 21 -3 21 8 0
15 7 15 15 0 21 -27 19 -39 -4z"/>
<path d="M930 256 c0 -8 6 -17 13 -19 9 -4 8 -8 -3 -16 -13 -9 -13 -11 3 -11
19 0 23 25 6 36 -8 4 -7 9 2 15 11 7 10 9 -3 9 -10 0 -18 -6 -18 -14z"/>
<path d="M1041 225 c0 -22 3 -34 6 -27 2 6 10 12 18 12 19 0 36 25 29 44 -3 9
-16 15 -30 14 -21 -2 -24 -7 -23 -43z m39 15 c0 -11 -7 -20 -15 -20 -15 0 -21
21 -8 33 12 13 23 7 23 -13z"/>
<path d="M1123 264 c18 -5 18 -7 -2 -21 -24 -17 -19 -33 10 -33 29 0 23 54 -6
57 -17 2 -18 1 -2 -3z m17 -34 c0 -5 -4 -10 -10 -10 -5 0 -10 5 -10 10 0 6 5
10 10 10 6 0 10 -4 10 -10z"/>
<path d="M1167 250 c-3 -11 -1 -23 4 -26 5 -3 9 4 9 15 0 31 18 25 23 -6 4
-26 4 -26 6 5 1 25 -3 32 -18 32 -10 0 -21 -9 -24 -20z"/>
<path d="M1304 255 c-9 -23 3 -45 23 -44 17 1 17 2 1 6 -24 6 -23 23 2 23 13
0 18 5 14 15 -4 8 -13 15 -20 15 -8 0 -17 -7 -20 -15z"/>
<path d="M131 193 c15 -2 32 -15 40 -29 11 -22 11 -30 -3 -55 -17 -30 -12 -39
10 -17 17 17 15 74 -4 92 -8 9 -27 15 -42 15 l-27 -2 26 -4z"/>
<path d="M80 175 c-20 -24 -15 -67 10 -87 12 -10 18 -18 14 -19 -17 -2 131
-27 163 -28 17 -1 34 2 36 7 3 4 -16 8 -41 8 -61 2 -163 29 -173 46 -13 19
-11 62 3 76 7 7 9 12 6 12 -3 0 -11 -7 -18 -15z"/>
<path d="M221 155 c-6 -21 1 -70 11 -76 6 -4 19 -4 29 -2 15 4 19 14 17 47
l-1 41 -4 -37 c-6 -54 -40 -54 -46 0 -2 20 -5 33 -6 27z"/>
<path d="M343 150 c9 -6 15 -15 12 -21 -4 -5 -1 -9 5 -9 20 0 6 35 -15 38 -18
3 -19 2 -2 -8z"/>
<path d="M396 138 c-9 -12 -16 -26 -16 -30 0 -11 31 -38 43 -38 7 0 4 5 -5 11
-20 11 -24 54 -6 65 6 4 18 -2 25 -12 14 -19 15 -19 11 1 -5 28 -33 30 -52 3z"/>
<path d="M479 156 c0 -1 -1 -18 -2 -39 -2 -45 11 -50 15 -4 4 44 31 43 40 -3
l6 -35 -1 40 c-2 36 -5 40 -29 41 -16 1 -28 1 -29 0z"/>
<path d="M584 145 c-4 -9 4 -25 20 -40 18 -16 26 -20 26 -10 0 8 -9 19 -20 25
-26 14 -26 34 0 27 11 -3 18 -1 14 4 -8 14 -34 10 -40 -6z"/>
<path d="M782 120 c1 -32 2 -37 5 -16 l5 29 23 -29 24 -29 -1 40 c0 25 -2 31
-5 16 l-5 -24 -24 29 -23 29 1 -45z"/>
<path d="M873 153 c-14 -5 -18 -59 -5 -66 4 -3 7 9 7 26 0 21 5 33 17 35 21 4
34 -34 18 -53 -8 -10 -9 -15 -2 -15 17 0 24 37 12 60 -11 20 -23 23 -47 13z"/>
<path d="M980 129 l-13 -31 -14 29 -13 28 6 -30 c9 -49 22 -52 39 -11 9 21 14
40 12 42 -2 3 -10 -9 -17 -27z"/>
<path d="M1012 127 c-14 -40 -15 -58 -2 -37 8 12 13 13 30 2 11 -7 20 -10 20
-7 0 9 -29 75 -32 75 -2 0 -9 -15 -16 -33z m28 -7 c0 -5 -4 -10 -10 -10 -5 0
-10 5 -10 10 0 6 5 10 10 10 6 0 10 -4 10 -10z"/>
<path d="M1067 152 c6 -4 13 -23 16 -42 l4 -35 1 37 c1 20 8 39 15 41 6 3 -1
6 -18 6 -17 0 -25 -3 -18 -7z"/>
<path d="M1160 146 c-15 -19 -9 -58 10 -63 12 -4 12 -3 2 5 -19 13 -11 56 11
60 23 5 33 -25 18 -50 -10 -16 -10 -19 1 -16 30 10 16 78 -17 78 -7 0 -18 -7
-25 -14z"/>
<path d="M1346 144 c-9 -8 -16 -19 -16 -24 0 -17 12 -40 21 -40 6 0 5 9 -1 20
-13 24 -6 38 24 50 16 7 17 9 4 9 -9 1 -24 -6 -32 -15z"/>
<path d="M1411 118 c0 -24 3 -36 6 -28 3 8 11 18 17 22 8 5 7 8 -1 8 -20 0
-15 28 5 33 13 4 11 5 -5 6 -21 1 -23 -4 -22 -41z"/>
<path d="M1547 152 c6 -4 13 -23 16 -42 l4 -35 1 37 c1 20 8 39 15 41 6 3 -1
6 -18 6 -17 0 -25 -3 -18 -7z"/>
<path d="M1607 154 c-4 -4 -6 -23 -6 -43 1 -20 3 -28 6 -18 2 9 8 17 13 17 5
0 14 -8 19 -17 8 -14 10 -9 8 22 -2 38 -22 57 -40 39z m33 -19 c0 -8 -7 -15
-15 -15 -8 0 -15 7 -15 15 0 8 7 15 15 15 8 0 15 -7 15 -15z"/>
<path d="M1670 130 c0 -16 -1 -33 -2 -37 -1 -5 7 -9 18 -11 16 -3 17 -1 4 7
-13 10 -13 12 0 21 10 6 11 10 3 10 -20 0 -15 28 5 33 13 4 11 5 -5 6 -19 1
-23 -4 -23 -29z"/>
<path d="M308 137 c-5 -10 -8 -22 -8 -27 0 -12 30 -40 43 -40 6 0 3 6 -5 13
-9 6 -18 26 -20 42 -2 24 -4 26 -10 12z"/>
<path d="M683 115 c0 -22 2 -30 4 -17 2 12 2 30 0 40 -3 9 -5 -1 -4 -23z"/>
<path d="M701 113 c2 -32 3 -33 6 -10 4 23 7 26 19 16 17 -14 19 2 2 19 -21
21 -28 13 -27 -25z"/>
<path d="M747 123 c-3 -16 -1 -32 4 -38 5 -5 9 5 9 28 0 44 -6 48 -13 10z"/>
<path d="M1120 115 c0 -19 4 -35 8 -35 4 0 6 16 4 35 -2 19 -6 35 -8 35 -2 0
-4 -16 -4 -35z"/>
<path d="M1231 113 c1 -37 2 -37 8 -8 l6 29 22 -29 22 -30 0 40 c-1 33 -2 36
-8 15 l-7 -25 -12 23 c-19 33 -32 27 -31 -15z"/>
<path d="M1464 137 c-3 -9 -4 -26 -1 -39 4 -20 4 -19 6 6 1 24 3 27 16 16 8
-7 15 -8 15 -2 0 5 -7 15 -15 22 -12 10 -16 9 -21 -3z"/>
<path d="M1507 123 c-3 -16 -1 -32 4 -38 5 -5 9 5 9 28 0 44 -6 48 -13 10z"/>
</g>
</svg>
