<?xml version="1.0" standalone="no"?>
<!DOCTYPE svg PUBLIC "-//W3C//DTD SVG 20010904//EN"
 "http://www.w3.org/TR/2001/REC-SVG-20010904/DTD/svg10.dtd">
<svg version="1.0" xmlns="http://www.w3.org/2000/svg"
 width="2400.000000pt" height="2400.000000pt" viewBox="0 0 2400.000000 2400.000000"
 preserveAspectRatio="xMidYMid meet">
<metadata>
Created by potrace 1.16, written by Peter Selinger 2001-2019
</metadata>
<g transform="translate(0.000000,2400.000000) scale(0.100000,-0.100000)"
fill="#000000" stroke="none">
<path d="M0 12000 l0 -12000 12000 0 12000 0 0 12000 0 12000 -12000 0 -12000
0 0 -12000z m10017 5723 c4 -34 9 -40 24 -36 27 7 49 -14 49 -48 0 -26 -2 -28
-29 -23 -23 5 -32 2 -40 -15 -40 -73 83 -138 145 -76 30 30 28 56 -4 70 -28
12 -28 23 0 52 23 25 52 30 64 12 4 -7 12 1 20 20 12 29 62 61 94 61 6 0 -3
-26 -19 -58 -30 -59 -81 -202 -101 -279 l-10 -42 -36 15 c-92 39 -328 38 -403
0 l-29 -15 -30 97 c-17 53 -50 135 -74 182 -23 47 -44 89 -46 94 -6 12 48 -2
76 -20 13 -8 27 -27 33 -41 7 -20 13 -23 21 -15 7 7 18 12 25 12 17 0 53 -36
53 -54 0 -7 -9 -16 -20 -19 -14 -4 -20 -14 -20 -35 0 -58 81 -83 133 -42 32
26 41 53 27 81 -9 16 -18 19 -36 15 -24 -6 -25 -5 -22 31 3 36 5 38 36 37 30
-2 32 0 32 31 0 18 9 44 21 59 22 27 22 27 41 8 11 -10 22 -37 25 -59z m2103
-9 c0 -32 2 -34 27 -28 32 8 52 -14 45 -51 -3 -20 -8 -24 -28 -19 -19 5 -26 1
-32 -17 -12 -32 -4 -56 26 -79 30 -24 79 -26 110 -4 29 20 31 74 2 81 -45 12
2 79 49 70 21 -5 30 0 43 23 14 24 82 60 93 48 2 -1 -16 -43 -40 -92 -24 -49
-58 -133 -75 -187 l-32 -99 -29 16 c-75 38 -311 39 -403 0 l-36 -15 -10 42
c-24 91 -64 205 -97 270 -18 37 -29 67 -23 67 32 0 82 -32 94 -61 8 -19 16
-27 20 -20 11 17 38 13 63 -11 29 -27 29 -41 1 -53 -49 -22 -7 -95 54 -95 68
0 114 52 88 100 -8 15 -19 20 -38 18 -22 -2 -28 2 -30 20 -5 31 17 55 44 49
19 -3 23 2 27 35 3 22 13 49 23 60 19 20 19 20 41 -7 14 -16 23 -39 23 -61z
m2106 51 c9 -15 14 -37 12 -54 -4 -28 -2 -29 22 -25 33 7 55 -16 46 -50 -5
-20 -12 -24 -34 -23 -24 2 -27 -2 -30 -34 -4 -44 21 -69 75 -76 29 -4 44 0 66
17 35 28 35 73 0 78 -30 4 -29 23 1 51 19 18 31 21 55 16 23 -5 31 -3 31 7 0
20 40 55 73 63 15 4 27 4 27 1 0 -4 -13 -32 -29 -64 -31 -61 -85 -216 -96
-273 l-7 -35 -56 19 c-82 28 -293 28 -373 1 l-56 -20 -27 96 c-15 52 -43 131
-62 175 -19 44 -38 86 -41 93 -8 19 21 14 58 -11 18 -12 36 -33 39 -47 4 -17
8 -21 14 -12 13 21 53 13 75 -14 26 -33 26 -44 1 -44 -45 0 -37 -70 10 -90 60
-25 130 10 130 66 0 27 -22 46 -43 38 -12 -4 -18 2 -23 20 -8 34 12 59 43 53
20 -4 23 0 23 30 0 70 43 98 76 48z m-4099 -416 c28 -5 57 -17 63 -25 10 -11
6 -17 -26 -31 -53 -24 -333 -26 -379 -3 -16 8 -30 19 -30 25 -1 42 227 63 372
34z m2059 7 c68 -6 116 -23 111 -40 -2 -6 -17 -18 -33 -26 -45 -23 -325 -21
-378 3 -32 14 -36 20 -26 31 18 23 163 46 240 39 14 -1 53 -4 86 -7z m2120 0
c110 -9 147 -43 77 -68 -60 -21 -337 -18 -387 5 -32 14 -36 20 -26 31 13 17
89 34 165 38 50 3 60 3 171 -6z m-486 -1394 c0 -711 -4 -1210 -10 -1293 -49
-621 -263 -1153 -656 -1624 -293 -351 -626 -632 -906 -764 -172 -82 -172 -82
-353 3 -430 203 -1010 813 -1264 1330 -144 293 -237 624 -271 965 -6 64 -10
560 -10 1322 l0 1219 1735 0 1735 0 0 -1158z m-3845 -512 c8 -16 15 -38 15
-48 0 -15 5 -18 23 -15 28 6 50 -18 45 -49 -2 -15 -10 -23 -23 -23 -31 0 -45
-14 -45 -44 0 -55 84 -90 135 -57 36 24 35 71 -2 83 l-27 9 26 27 c28 28 62
35 73 16 4 -6 14 4 23 23 11 21 30 37 55 47 20 7 40 12 42 9 3 -3 -15 -47 -39
-99 -33 -70 -91 -222 -101 -266 -1 -1 -23 5 -50 13 -90 28 -325 20 -411 -13
-8 -3 -14 1 -14 10 0 26 -71 230 -102 290 -16 33 -27 61 -24 64 2 3 21 -1 42
-7 25 -9 40 -21 47 -41 9 -23 15 -27 38 -22 21 4 34 -1 56 -23 l27 -28 -27 -9
c-55 -18 -23 -97 41 -97 12 0 38 6 57 14 57 24 60 103 4 100 -39 -2 -52 32
-23 61 11 10 25 14 40 11 21 -6 24 -3 24 24 0 70 47 95 75 40z m4276 14 c7 -8
13 -31 13 -50 1 -27 4 -33 18 -28 30 9 60 -14 56 -44 -3 -23 -7 -27 -30 -24
-22 3 -30 -2 -40 -23 -10 -22 -8 -30 9 -53 37 -50 118 -55 148 -8 18 27 11 53
-16 61 -27 9 -20 36 13 55 23 12 31 13 48 2 17 -10 20 -10 20 5 1 26 22 51 54
63 53 20 55 13 21 -57 -34 -68 -76 -183 -95 -259 l-10 -41 -52 14 c-67 18
-274 20 -350 4 -32 -7 -61 -12 -64 -12 -3 0 -20 40 -36 88 -16 48 -49 128 -73
178 -24 49 -42 91 -40 93 7 7 68 -17 87 -35 10 -9 18 -22 18 -29 0 -10 9 -12
29 -8 21 5 34 1 50 -15 26 -26 27 -38 1 -46 -45 -14 -8 -95 44 -95 71 0 106
37 92 96 -6 22 -11 25 -31 20 -14 -4 -25 -2 -25 3 0 5 -3 16 -6 24 -8 21 25
49 51 43 19 -5 22 -1 22 24 0 31 27 70 48 70 7 0 18 -7 26 -16z m-4118 -434
c31 -15 35 -34 10 -46 -10 -4 -84 -9 -164 -12 -222 -6 -329 25 -211 63 60 19
322 16 365 -5z m4246 9 c63 -13 81 -32 49 -51 -32 -18 -373 -19 -405 0 -13 7
-23 17 -23 22 0 33 265 54 379 29z m-3944 -1695 c9 -15 17 -41 18 -60 1 -28 4
-31 18 -23 20 10 45 3 53 -16 8 -23 -6 -56 -23 -53 -26 4 -41 -11 -41 -42 0
-41 34 -70 84 -70 48 0 76 23 76 62 0 22 -5 28 -21 28 -30 0 -21 40 13 60 22
12 32 13 47 3 17 -11 21 -9 29 17 11 31 64 65 88 56 10 -4 4 -22 -26 -78 -21
-40 -55 -120 -74 -178 -24 -69 -40 -104 -48 -101 -138 44 -334 42 -440 -3 -14
-6 -19 1 -28 36 -20 80 -71 223 -96 267 -31 56 -30 65 4 56 37 -9 72 -44 72
-72 0 -22 1 -23 16 -9 23 23 50 19 73 -10 27 -35 26 -44 -4 -44 -21 0 -25 -5
-25 -29 0 -38 32 -61 83 -61 43 0 87 35 87 69 0 28 -28 53 -51 46 -27 -9 -35
19 -15 50 13 20 22 24 41 19 23 -6 25 -4 25 32 0 34 22 74 40 74 4 0 15 -12
25 -26z m3351 -11 c9 -20 13 -45 10 -56 -4 -15 -1 -18 17 -13 29 7 47 -11 47
-46 0 -25 -3 -29 -20 -25 -29 7 -53 -20 -45 -52 9 -39 41 -61 90 -61 35 0 48
5 65 27 25 32 22 57 -8 61 -28 4 -29 33 -2 57 16 15 26 17 48 9 24 -8 28 -6
42 21 16 32 62 60 85 51 10 -4 6 -20 -20 -68 -27 -50 -63 -154 -100 -285 -3
-8 -22 -6 -67 9 -54 17 -83 19 -198 15 -90 -3 -149 -9 -177 -20 l-43 -16 -6
27 c-24 111 -67 226 -110 293 -20 32 -22 40 -10 45 24 9 70 -18 86 -51 14 -27
18 -29 42 -21 22 8 32 6 48 -9 26 -24 26 -55 0 -55 -15 0 -20 -7 -20 -29 0
-38 32 -61 83 -61 65 0 110 65 72 103 -8 9 -24 13 -35 10 -17 -4 -20 0 -20 25
0 35 18 53 46 46 17 -5 21 -1 21 24 0 36 27 82 49 82 8 0 22 -16 30 -37z
m-3233 -404 c62 -13 91 -34 66 -50 -73 -47 -389 -42 -429 6 -24 29 65 52 211
54 53 1 121 -4 152 -10z m3390 -12 c20 -9 37 -20 37 -25 0 -33 -190 -58 -320
-43 -89 11 -140 27 -140 42 0 12 36 29 83 39 68 15 296 6 340 -13z m440 -498
c21 -17 36 -34 33 -37 -4 -3 -25 -6 -48 -6 -49 -1 -62 -24 -31 -58 16 -18 26
-20 88 -15 111 8 165 -26 165 -106 0 -27 -7 -45 -25 -63 -14 -14 -27 -35 -31
-48 -3 -13 -18 -36 -34 -51 l-28 -27 -13 23 c-14 27 -38 48 -55 49 -6 0 -19
-15 -29 -33 -16 -31 -16 -35 -1 -65 9 -18 23 -32 31 -32 16 0 19 -18 9 -44 -8
-21 -44 -21 -44 0 0 19 -137 265 -154 277 -6 4 -23 5 -38 3 -15 -3 -30 -1 -33
5 -9 13 59 40 82 33 38 -13 91 -38 165 -80 85 -48 99 -53 76 -26 -33 38 -32
43 11 36 65 -10 90 22 51 64 -18 19 -31 22 -106 22 -76 0 -87 2 -109 24 -35
35 -41 71 -19 114 36 67 39 72 44 72 3 0 22 -14 43 -31z m-4506 -45 c18 -20
33 -40 33 -43 0 -13 -70 -75 -77 -68 -4 4 -1 23 5 41 14 39 7 66 -18 66 -32 0
-45 -30 -51 -119 -7 -97 -19 -124 -66 -146 -41 -20 -77 -11 -103 24 -11 14
-27 34 -37 44 -16 17 -15 20 25 59 47 48 64 45 37 -6 -24 -44 -10 -86 30 -86
39 0 56 36 58 130 3 79 4 84 35 111 46 41 86 39 129 -7z m109 -129 c10 -40
-22 -109 -108 -233 -43 -62 -78 -120 -78 -128 0 -22 -16 -17 -39 12 -26 33
-27 54 -2 54 11 0 29 13 40 28 l20 29 -28 34 c-26 31 -30 33 -56 21 -15 -7
-29 -21 -32 -32 -7 -28 -28 -25 -42 7 -14 30 -3 43 37 43 28 0 232 104 250
128 6 8 12 26 12 39 0 31 18 29 26 -2z m4213 -111 c22 -28 28 -54 12 -54 -6 0
-13 5 -16 10 -9 14 -45 12 -45 -2 0 -20 193 -208 212 -208 26 0 22 -20 -9 -52
-32 -34 -53 -36 -53 -5 0 15 -31 53 -95 117 -77 77 -97 92 -105 80 -12 -19
-12 -27 0 -35 6 -3 10 -18 10 -32 l0 -26 -26 24 c-44 41 -48 56 -23 92 47 66
92 117 104 117 8 0 23 -12 34 -26z m-4153 -6 c4 -13 24 -44 45 -69 28 -33 39
-56 39 -79 0 -42 -34 -89 -77 -107 -32 -13 -39 -12 -74 5 l-39 19 -35 -42
c-19 -24 -35 -50 -35 -59 0 -26 -24 -17 -45 17 l-20 32 93 89 c102 98 122 127
122 181 0 39 15 47 26 13z m2058 -40 c9 -12 16 -35 16 -51 0 -25 3 -28 21 -24
27 7 59 -25 52 -52 -3 -13 -12 -20 -26 -18 -26 3 -48 -37 -38 -67 16 -43 96
-60 139 -30 29 20 28 80 0 78 -24 -2 -23 21 2 46 23 23 41 25 58 8 8 -8 14 -5
21 14 12 33 48 58 82 58 l26 0 -39 -76 c-41 -77 -97 -226 -98 -256 0 -26 -13
-28 -61 -11 -70 25 -323 18 -401 -12 -13 -5 -19 2 -28 37 -27 104 -66 207
-118 311 -2 4 8 7 23 7 28 0 75 -40 75 -64 0 -13 4 -14 25 -4 22 10 29 8 50
-12 27 -25 34 -53 11 -44 -20 8 -36 -26 -25 -53 18 -49 103 -60 144 -18 29 28
31 42 9 73 -11 16 -21 21 -40 16 -22 -6 -24 -3 -24 25 0 32 27 55 53 45 10 -4
16 5 20 31 11 65 43 84 71 43z m1936 -114 c0 -22 178 -203 207 -210 30 -8 29
-22 -4 -56 -30 -32 -43 -35 -43 -12 0 25 -182 213 -206 214 -33 0 -35 10 -6
46 29 36 52 44 52 18z m-3841 -38 l32 -33 -34 -19 c-45 -25 -197 -190 -197
-214 0 -32 -15 -31 -50 5 -33 34 -33 55 -1 55 24 0 201 194 201 220 0 28 11
25 49 -14z m107 -111 l67 -66 -20 -27 c-28 -37 -49 -35 -45 3 2 21 -3 37 -18
50 -21 19 -21 18 -57 -18 -35 -35 -36 -37 -19 -56 10 -11 25 -17 37 -14 24 7
24 -2 -2 -38 -21 -30 -56 -41 -46 -14 3 7 -3 24 -14 37 l-19 23 -45 -50 c-25
-27 -45 -53 -45 -57 0 -15 64 -48 93 -48 33 0 35 -13 5 -34 -40 -28 -63 -20
-122 47 -31 34 -56 65 -56 70 0 4 9 7 19 7 27 0 211 198 211 228 0 12 2 22 5
22 2 0 35 -29 71 -65z m3614 29 c0 -15 138 -183 175 -214 15 -12 19 -12 31 5
8 10 14 38 14 62 0 24 4 43 8 43 11 0 45 -75 41 -88 -7 -17 -99 -112 -109
-112 -6 0 -10 7 -10 16 0 15 -175 224 -188 224 -4 0 -13 4 -21 9 -12 8 -10 15
10 39 26 34 49 41 49 16z m-3505 -68 c33 -49 29 -136 -11 -263 -3 -10 13 2 35
26 23 24 45 57 49 73 l8 30 33 -31 c18 -17 39 -31 46 -31 7 0 19 -7 26 -17 8
-9 38 -31 67 -50 28 -18 52 -37 52 -42 0 -15 -41 -61 -55 -61 -11 0 -13 8 -9
29 3 16 1 31 -4 35 -15 9 -173 -219 -166 -238 9 -23 -11 -20 -57 9 -40 26 -44
45 -9 45 12 0 46 38 100 112 70 97 78 113 64 121 -12 7 -26 4 -46 -8 -39 -22
-47 -12 -19 25 14 19 17 30 9 30 -7 0 -51 -48 -98 -106 -93 -115 -117 -140
-126 -131 -4 4 10 66 30 138 20 72 35 133 33 135 -8 8 -126 -143 -132 -169 -7
-27 -7 -27 -36 -10 -30 18 -39 43 -16 43 14 0 176 181 197 220 8 14 10 40 6
66 -6 49 5 57 29 20z m3425 -14 c0 -23 160 -211 195 -230 l27 -14 -28 -29
c-34 -36 -50 -37 -58 -3 -8 31 -163 214 -182 214 -24 0 -25 20 -2 50 26 33 48
39 48 12z m-31 -119 c18 -20 22 -34 18 -60 -5 -31 -4 -33 23 -33 20 0 37 -11
59 -35 33 -38 38 -63 20 -98 -14 -27 -80 -97 -92 -97 -4 0 -28 -14 -53 -30
-39 -27 -44 -29 -44 -12 0 10 -11 29 -24 41 l-25 23 -35 -22 c-20 -12 -36 -23
-36 -24 0 -23 26 -65 43 -70 21 -6 21 -7 -8 -31 -37 -30 -49 -28 -51 11 -2 33
-49 212 -66 250 -6 13 -23 27 -37 30 -45 10 -52 14 -46 24 3 5 27 10 52 10 41
0 53 -7 130 -67 164 -131 173 -136 173 -105 0 26 -160 222 -181 222 -32 0 -29
16 9 53 65 64 126 71 171 20z m-1536 7 c38 -19 34 -37 -13 -50 -43 -11 -300
-15 -355 -4 -70 13 -63 49 13 65 60 13 323 5 355 -11z m1217 -210 c16 -49 8
-61 -23 -32 -16 16 -26 19 -34 11 -7 -7 6 -38 47 -106 65 -105 87 -133 106
-133 30 0 21 -20 -20 -44 -25 -14 -46 -26 -48 -26 -2 0 -4 15 -5 33 0 36 -118
237 -138 237 -17 0 -24 -21 -18 -52 9 -46 -15 -40 -36 8 -21 47 -16 74 13 74
6 0 33 16 60 35 64 46 80 45 96 -5z m-2711 3 c36 -21 39 -33 11 -50 -11 -7
-51 -60 -90 -118 -65 -97 -85 -145 -60 -145 14 0 90 71 161 151 58 66 60 69
50 104 -15 55 13 45 35 -12 18 -46 18 -48 -9 -178 -15 -72 -27 -145 -27 -163
0 -36 -8 -39 -50 -17 -33 17 -38 32 -15 49 8 6 17 25 21 41 5 28 2 33 -31 50
l-37 20 -19 -24 c-10 -13 -19 -34 -19 -47 0 -31 -7 -30 -76 11 -79 48 -83 53
-58 73 32 26 154 212 161 244 6 33 11 34 52 11z m2505 -76 c16 -16 36 -52 36
-66 0 -6 -14 -4 -34 6 -40 18 -66 12 -66 -16 0 -26 30 -45 104 -66 82 -23 118
-60 114 -117 -3 -36 -8 -46 -38 -65 -19 -12 -42 -28 -52 -36 -14 -14 -18 -13
-36 6 -25 28 -45 67 -38 74 3 4 21 -2 40 -12 55 -30 94 1 62 50 -11 17 -35 30
-77 42 -43 12 -68 26 -90 50 -42 49 -39 83 13 127 47 41 45 40 62 23z m-2098
-128 c56 -27 64 -34 59 -52 -5 -19 -5 -20 5 -4 6 9 21 17 33 17 32 -1 161 -47
165 -59 4 -13 -28 -81 -39 -81 -4 0 -9 15 -11 32 -2 20 -9 34 -18 36 -21 3
-94 -242 -80 -269 15 -27 -4 -33 -56 -19 -49 14 -54 22 -24 43 29 20 97 256
78 268 -9 6 -20 1 -33 -16 -27 -33 -39 -32 -31 3 5 22 4 24 -4 10 -17 -27 -30
-21 -30 12 0 24 -6 33 -26 40 -40 15 -44 13 -66 -36 -23 -52 -15 -66 34 -62
31 3 32 0 23 -42 -8 -36 -11 -37 -41 -5 -13 14 -27 25 -32 25 -5 0 -20 -27
-32 -61 -17 -44 -20 -63 -12 -71 13 -13 66 -15 100 -3 31 10 30 -20 -3 -41
-23 -15 -29 -14 -112 13 -48 16 -88 34 -91 41 -2 6 10 18 26 26 26 13 35 31
66 123 20 60 36 123 36 142 0 31 2 33 26 27 14 -4 55 -21 90 -37z m1804 -36
c23 -20 68 -73 101 -117 32 -45 71 -93 84 -108 l25 -27 -29 -16 c-44 -22 -63
-20 -56 8 4 15 -1 32 -13 47 -17 21 -21 22 -55 11 -31 -11 -37 -17 -37 -41 0
-17 9 -38 21 -49 l21 -20 -37 -15 c-21 -9 -40 -16 -42 -16 -3 0 -2 18 2 41 4
22 1 94 -6 161 l-12 120 -39 25 c-21 14 -38 27 -38 29 0 2 16 4 35 4 26 0 45
-9 75 -37z m-104 -29 c-5 -17 6 -70 29 -150 60 -209 44 -227 -64 -72 -45 64
-81 101 -81 83 0 -23 34 -148 47 -174 17 -32 17 -34 -2 -47 -35 -26 -50 -14
-47 36 3 53 -38 228 -62 265 -10 15 -31 31 -47 37 -37 13 -37 28 0 28 60 0 98
-28 189 -135 l42 -50 -20 74 c-12 40 -27 80 -36 88 -19 20 -1 43 33 43 22 0
24 -3 19 -26z m-216 -53 c0 -6 -5 -13 -11 -16 -6 -4 -7 -14 -4 -24 4 -9 15
-65 25 -124 10 -63 24 -115 34 -126 25 -28 19 -39 -26 -46 -23 -4 -50 -13 -60
-19 -26 -16 -65 9 -102 66 -17 26 -34 47 -38 47 -5 1 -8 -19 -8 -44 0 -31 5
-47 17 -54 29 -16 -3 -43 -46 -39 l-36 3 3 47 c5 71 -18 240 -36 261 -22 25
-6 36 63 43 55 6 62 4 87 -19 34 -31 45 -86 28 -137 -15 -47 -4 -83 43 -133
l30 -32 8 23 c9 24 -32 246 -54 290 -9 19 -8 25 3 32 20 13 80 13 80 1z
m-1025 -11 c24 -5 51 -21 68 -40 24 -27 27 -38 27 -98 -1 -152 -67 -225 -182
-201 -29 6 -55 13 -57 15 -3 2 5 14 16 27 24 26 58 220 48 273 -5 31 -4 34 17
34 13 0 41 -5 63 -10z m268 -40 c37 -30 50 -79 45 -179 -4 -98 -24 -143 -71
-162 -40 -17 -76 -2 -101 41 -17 28 -21 52 -21 120 0 99 20 151 69 181 39 24
47 24 79 -1z m210 -7 c13 -4 17 -16 17 -59 0 -63 -24 -77 -34 -20 -9 48 -31
64 -47 34 -21 -37 -18 -198 4 -231 26 -40 45 -34 59 18 7 25 17 44 23 42 18
-6 17 -35 -4 -81 -32 -74 -96 -71 -138 7 -27 49 -25 200 3 247 22 39 61 63 84
54 8 -4 23 -9 33 -11z m235 -30 c-3 -45 -28 -76 -28 -35 0 21 -26 49 -36 39
-9 -9 7 -266 17 -273 23 -14 6 -32 -33 -37 -47 -6 -68 4 -51 25 12 14 6 278
-6 278 -12 0 -28 -16 -40 -37 -19 -36 -32 -27 -29 20 3 38 6 43 38 54 19 7 66
12 103 12 l68 1 -3 -47z m-6628 -38 c265 -42 487 -108 684 -204 573 -280 917
-775 987 -1422 18 -164 6 -555 -21 -708 -152 -856 -672 -1443 -1440 -1625
-119 -28 -400 -66 -493 -66 -123 0 -35 -18 288 -60 376 -48 799 -108 1700
-244 1821 -275 2202 -303 2757 -206 367 64 633 195 774 382 26 35 50 67 54 71
5 6 95 -25 108 -37 2 -2 -22 -48 -52 -102 -51 -93 -130 -293 -156 -396 -10
-40 -21 -52 -101 -112 -257 -193 -575 -289 -1048 -315 -383 -22 -855 29 -1701
181 -684 122 -780 139 -985 173 -115 18 -451 74 -745 124 -615 103 -787 127
-1056 143 -309 19 -530 -12 -723 -103 -76 -35 -99 -54 -222 -176 l-138 -136
-40 32 c-23 18 -41 37 -41 42 0 5 40 62 89 126 49 65 102 143 118 173 16 30
53 96 83 147 l55 92 130 52 c72 29 157 60 190 71 74 22 253 58 303 59 23 1 5
6 -48 15 -384 59 -742 217 -1019 448 -388 325 -630 759 -706 1271 -20 131 -23
427 -6 560 85 653 433 1196 971 1513 219 130 486 218 760 251 118 15 567 6
690 -14z m13129 -1209 l22 -24 -22 -93 c-63 -273 -165 -561 -280 -791 l-68
-137 -112 -95 c-112 -94 -113 -95 -141 -80 -15 8 -28 19 -28 25 0 5 18 69 41
142 96 314 159 637 159 818 0 52 3 61 23 69 134 54 228 100 294 140 43 27 81
49 84 50 3 0 16 -11 28 -24z m1202 -96 c155 -16 470 -93 525 -128 8 -5 8 -88
0 -312 l-11 -305 -77 -3 -78 -3 0 73 c0 188 -84 319 -259 408 -225 113 -558
115 -746 6 -156 -92 -229 -334 -151 -503 70 -151 253 -239 641 -309 488 -87
735 -209 841 -412 103 -198 74 -502 -69 -721 -120 -184 -332 -335 -588 -416
-155 -49 -262 -66 -461 -72 -271 -8 -462 16 -711 88 l-109 32 6 36 c29 157 38
249 46 476 5 143 10 261 10 263 0 1 36 2 80 2 l80 0 0 -112 c0 -206 25 -284
119 -379 99 -99 269 -166 481 -190 320 -37 614 89 721 307 33 66 34 73 34 184
0 104 -3 121 -27 172 -31 66 -91 128 -154 158 -24 12 -160 51 -302 85 -596
147 -802 235 -933 398 -178 221 -167 595 25 846 186 244 613 376 1067 331z
m-11678 -963 c3 -863 4 -937 21 -1002 65 -250 227 -355 548 -355 217 0 370 68
538 240 85 87 135 164 167 259 22 65 22 73 23 628 0 346 -4 592 -11 640 -19
143 -40 155 -271 161 l-168 5 0 77 0 77 67 7 c170 18 498 103 688 179 93 37
113 42 137 33 l27 -10 3 -1141 c3 -887 7 -1148 17 -1178 22 -68 47 -77 284
-98 l127 -12 0 -81 0 -81 -461 0 -462 0 7 74 c11 127 20 421 13 421 -4 0 -96
-84 -204 -186 -214 -201 -273 -245 -385 -292 -186 -77 -477 -92 -708 -36 -174
42 -311 146 -380 288 -84 171 -90 236 -90 996 0 640 -7 820 -34 884 -22 54
-64 68 -219 74 l-128 5 3 75 3 76 86 12 c184 27 418 96 614 182 82 36 92 38
117 25 l27 -13 4 -933z m3514 952 c408 -45 711 -262 843 -602 50 -127 70 -254
70 -439 0 -89 -3 -173 -6 -184 -5 -19 -19 -24 -112 -38 -329 -50 -627 -66
-1227 -66 l-461 0 3 -72 c9 -200 51 -377 123 -523 144 -287 384 -442 741 -477
249 -24 444 29 728 200 l84 50 33 -21 c19 -12 34 -26 34 -31 0 -23 -104 -198
-132 -221 -49 -42 -280 -150 -413 -194 -182 -60 -306 -83 -462 -82 -389 0
-675 105 -904 331 -244 241 -349 534 -349 971 1 371 69 639 215 844 114 160
370 348 620 455 228 98 367 122 572 99z m2543 1 c252 -27 473 -126 634 -286
204 -201 300 -485 282 -829 -3 -65 -9 -122 -14 -126 -10 -11 -259 -46 -462
-65 -128 -12 -331 -18 -757 -21 l-583 -5 0 -62 c0 -175 47 -376 124 -531 89
-177 201 -291 371 -375 214 -105 491 -137 710 -80 88 23 278 111 395 183 l75
46 40 -24 c22 -13 40 -26 39 -30 -1 -4 -27 -52 -59 -107 -68 -115 -88 -132
-258 -213 -245 -118 -479 -177 -703 -176 -579 1 -1000 275 -1173 763 -59 168
-76 287 -76 533 0 133 5 254 13 305 55 352 176 579 402 750 182 137 322 217
500 283 186 69 316 86 500 67z m1822 -252 l3 -231 230 198 c127 108 252 210
280 226 131 75 430 88 670 28 269 -68 458 -255 535 -529 45 -162 50 -246 50
-925 0 -776 7 -865 73 -905 34 -21 47 -23 235 -41 l122 -12 0 -81 0 -81 -445
0 -444 0 -3 865 c-3 857 -4 866 -25 943 -83 292 -301 457 -603 457 -124 0
-222 -25 -343 -87 -74 -38 -110 -65 -182 -138 -62 -61 -100 -109 -120 -150
l-30 -60 -3 -720 c-2 -396 0 -748 3 -783 12 -118 40 -132 298 -153 l147 -12 0
-81 0 -81 -690 0 -690 0 0 81 0 81 148 12 c81 7 168 17 194 23 63 13 94 50
103 120 3 29 5 442 3 918 -3 969 0 926 -72 963 -33 18 -64 21 -203 25 l-164 5
3 75 3 76 90 13 c205 29 465 98 660 176 101 40 112 43 137 30 l28 -13 2 -232z
m1700 -2678 c20 -6 46 -18 57 -28 20 -16 21 -23 14 -92 -7 -65 -11 -75 -28
-75 -14 0 -21 10 -27 38 -17 84 -56 110 -159 110 -114 0 -181 -50 -183 -136
-2 -92 39 -120 202 -138 127 -13 164 -24 203 -56 123 -104 47 -321 -140 -395
-76 -31 -256 -33 -344 -4 -57 19 -59 20 -53 49 3 16 6 56 6 88 0 56 1 59 25
59 19 0 26 -6 30 -27 21 -99 62 -128 180 -128 66 0 88 5 124 25 25 14 54 40
64 58 22 37 26 117 8 150 -16 30 -82 50 -201 62 -182 18 -235 63 -235 200 0
51 6 85 17 106 37 67 112 123 195 144 46 11 194 6 245 -10z m2086 6 c46 -24
78 -66 167 -224 l87 -154 17 29 c9 15 57 99 106 186 l89 157 58 0 c32 0 58 -4
58 -10 0 -5 -30 -51 -67 -102 -37 -51 -103 -149 -146 -217 l-79 -125 3 -117
c5 -138 9 -146 87 -156 44 -5 52 -9 52 -27 0 -21 -3 -21 -225 -21 -223 0 -225
0 -225 21 0 18 8 22 53 28 94 13 97 17 97 161 l0 124 -37 63 c-55 95 -148 229
-191 276 -27 29 -47 42 -65 42 -22 0 -27 5 -27 23 0 21 8 25 73 39 39 9 76 16
80 17 4 1 20 -5 35 -13z m-3864 -2 l47 -7 -7 -71 c-9 -88 -17 -119 -32 -124
-14 -4 -28 27 -37 80 -3 21 -13 39 -23 43 -24 10 -255 19 -286 11 l-26 -6 0
-135 0 -135 101 0 c123 0 139 7 139 60 0 38 2 40 30 40 l30 0 0 -140 0 -140
-30 0 c-28 0 -30 3 -30 35 0 62 -24 75 -140 75 l-101 0 3 -147 3 -148 158 0
c183 0 176 -3 197 95 10 47 17 60 31 60 17 0 19 -9 19 -92 0 -51 -3 -103 -6
-115 l-6 -23 -349 0 c-335 0 -349 1 -349 19 0 15 10 20 54 25 94 12 91 1 91
348 0 347 5 330 -105 343 -49 6 -60 10 -58 24 3 14 29 17 213 21 374 10 422
10 469 4z m-4224 -23 c0 -16 -10 -21 -46 -27 -83 -12 -84 -14 -84 -253 0 -299
12 -344 102 -389 36 -18 63 -23 121 -23 114 0 173 30 208 106 16 35 19 69 19
281 0 276 3 267 -88 279 -42 6 -52 11 -50 24 3 14 23 16 173 16 149 0 170 -2
173 -16 2 -13 -9 -18 -51 -23 -86 -11 -84 -5 -90 -291 -3 -143 -9 -265 -16
-286 -20 -63 -65 -115 -128 -145 -55 -28 -65 -29 -193 -29 -120 0 -141 3 -185
23 -61 28 -90 55 -118 107 -21 37 -22 58 -27 306 -6 306 -4 302 -90 313 -41 5
-50 10 -50 26 0 19 8 20 210 20 201 0 210 -1 210 -19z m1045 -38 c101 -124
470 -552 478 -552 5 -1 7 116 5 260 -3 301 0 291 -103 304 -45 5 -56 10 -53
23 3 15 25 17 191 20 180 2 187 2 187 -17 0 -16 -9 -21 -54 -26 -95 -12 -91 7
-91 -401 0 -195 -2 -354 -4 -354 -2 0 -33 5 -68 11 l-64 11 -256 297 c-141
163 -260 300 -265 306 -4 5 -8 -114 -8 -264 l0 -272 35 -15 c19 -7 53 -14 75
-14 33 0 40 -3 40 -20 0 -19 -7 -20 -185 -20 -175 0 -185 1 -185 19 0 15 10
20 55 26 42 5 59 12 75 32 19 24 20 40 20 324 0 341 7 315 -94 328 -43 5 -52
10 -54 29 -3 22 -3 22 137 22 l140 0 46 -57z m1363 36 c2 -13 -9 -18 -52 -23
-31 -4 -66 -16 -78 -26 -23 -18 -23 -19 -23 -307 0 -158 3 -300 7 -315 9 -30
50 -48 110 -48 32 0 39 -3 36 -17 -3 -16 -23 -18 -226 -21 -212 -2 -222 -1
-222 16 0 16 10 20 52 25 95 12 93 2 96 342 l3 295 -24 24 c-16 16 -41 26 -75
31 -42 6 -52 11 -52 26 0 19 9 19 222 17 197 -3 223 -5 226 -19z m542 1 c0
-14 -9 -21 -37 -25 -77 -12 -83 -15 -83 -36 0 -11 24 -75 53 -142 30 -67 78
-179 107 -250 29 -70 54 -126 56 -124 6 5 186 471 191 493 7 31 -20 51 -77 59
-40 6 -50 11 -48 24 3 14 24 16 161 19 151 2 157 2 157 -18 0 -13 -9 -22 -27
-26 -16 -4 -35 -13 -44 -21 -9 -8 -86 -174 -170 -369 l-154 -355 -44 3 -43 3
-149 355 c-82 195 -157 360 -165 367 -9 6 -33 15 -55 18 -29 5 -39 11 -39 26
0 18 10 19 205 19 197 0 205 -1 205 -20z m2108 11 c120 -18 182 -71 182 -158
0 -90 -49 -149 -166 -199 l-63 -27 92 -105 c162 -186 209 -233 239 -239 19 -4
28 -12 28 -24 0 -17 -9 -19 -107 -18 l-108 0 -165 190 c-91 104 -165 197 -165
207 0 14 12 18 71 23 117 9 171 67 162 176 -4 44 -11 60 -36 86 -29 29 -39 32
-107 35 -41 2 -86 1 -100 -2 l-25 -6 0 -320 c0 -365 -8 -337 96 -347 44 -5 54
-9 54 -24 0 -18 -12 -19 -230 -19 -218 0 -230 1 -230 19 0 15 10 19 58 24 95
10 92 -1 92 346 0 347 3 335 -90 346 -50 6 -60 10 -60 26 0 18 11 19 258 19
141 0 285 -4 320 -9z m1732 -21 c0 -30 0 -30 -57 -30 -32 0 -65 -5 -73 -10
-13 -8 -15 -55 -15 -319 0 -355 -4 -338 88 -348 47 -5 57 -9 57 -24 0 -18 -12
-19 -220 -19 -213 0 -220 1 -220 20 0 15 7 20 29 20 50 0 91 20 99 48 4 15 7
156 7 313 0 228 -3 289 -14 302 -9 12 -29 17 -67 17 -53 0 -54 0 -54 30 l0 30
220 0 220 0 0 -30z m960 3 c0 -16 -3 -65 -7 -110 -6 -79 -7 -83 -29 -83 -22 0
-24 4 -24 49 0 33 -6 56 -19 72 -17 22 -28 24 -120 27 l-101 4 0 -315 c0 -359
-4 -343 89 -354 41 -5 51 -9 51 -24 0 -18 -12 -19 -220 -19 -213 0 -220 1
-220 20 0 16 7 20 34 20 40 0 87 16 98 33 4 7 8 153 8 325 l0 312 -90 0 c-93
0 -137 -12 -144 -39 -2 -9 -7 -37 -11 -63 -5 -42 -9 -48 -31 -48 -24 0 -24 0
-24 110 l0 110 380 0 380 0 0 -27z"/>
<path d="M11102 16826 c239 -315 940 -1236 959 -1259 15 -19 21 -13 150 154
122 158 897 1169 977 1275 l34 44 -1141 0 -1141 0 162 -214z m1045 109 c41
-59 48 -75 36 -80 -14 -5 -13 -8 3 -26 10 -11 31 -28 46 -37 35 -20 36 -32 3
-32 -39 0 -30 -20 35 -85 33 -33 60 -63 60 -68 0 -5 -18 -6 -40 -2 -22 4 -40
3 -40 -2 0 -15 128 -171 150 -183 32 -17 23 -30 -22 -30 l-43 0 85 -86 85 -85
-77 3 c-55 2 -74 0 -67 -8 13 -15 -42 -24 -153 -24 l-88 0 0 -63 c0 -36 6 -71
13 -81 7 -10 42 -30 77 -44 69 -29 89 -52 45 -52 -23 0 -25 -2 -15 -21 15 -26
7 -34 -18 -20 -35 19 -46 12 -18 -10 33 -26 37 -55 4 -38 -18 10 -24 8 -39
-12 l-17 -24 -7 28 c-4 15 -12 27 -17 27 -6 0 -7 -9 -3 -22 14 -46 17 -78 7
-78 -6 0 -14 5 -17 10 -4 6 -14 1 -25 -12 -17 -21 -19 -21 -20 -4 0 13 -5 17
-20 13 -27 -7 -34 8 -20 43 16 39 7 63 -11 27 l-13 -28 -17 22 c-14 19 -20 21
-32 11 -27 -23 -30 6 -3 33 34 34 33 37 -5 18 -36 -18 -45 -13 -29 16 9 19 8
21 -14 21 -43 0 -20 27 42 50 86 32 92 41 92 128 l0 74 -57 -6 c-158 -16 -226
-19 -219 -8 5 9 -8 12 -43 12 -28 0 -51 2 -51 5 0 3 12 17 28 30 15 13 21 25
14 25 -6 0 15 33 49 73 49 59 57 73 42 75 -44 7 -42 13 28 99 71 86 72 88 46
91 -15 2 -27 6 -27 9 0 3 14 22 32 42 31 35 31 36 10 39 -12 2 -22 6 -22 9 0
3 30 39 66 79 39 44 60 74 51 74 -11 0 3 26 41 80 31 44 59 80 62 79 3 0 28
-33 57 -74z"/>
<path d="M10420 15662 c0 -558 4 -950 11 -1029 25 -301 100 -608 206 -843 l29
-64 120 154 c155 200 510 661 697 909 95 125 144 198 139 205 -5 6 -58 76
-117 156 -60 80 -188 249 -285 375 -182 237 -790 1027 -796 1034 -2 2 -4 -401
-4 -897z m481 -22 c10 -6 26 -24 34 -40 11 -22 23 -30 41 -30 14 0 41 -7 60
-16 38 -18 104 -87 104 -108 0 -8 14 -17 33 -21 32 -7 67 -31 67 -46 0 -5 -13
-23 -29 -42 -21 -23 -27 -37 -20 -48 25 -39 -16 -173 -62 -202 -14 -9 -17 -19
-12 -53 7 -54 -13 -69 -70 -49 -33 11 -43 11 -70 -3 -17 -8 -26 -17 -20 -19 8
-3 7 -14 -3 -39 -16 -38 -12 -56 11 -47 18 6 18 5 0 -47 -8 -23 -15 -63 -15
-87 0 -39 2 -44 15 -33 9 7 15 29 15 53 0 87 68 168 166 197 41 12 226 11 239
-2 12 -11 -67 -158 -113 -209 -72 -80 -152 -111 -232 -89 -38 10 -44 9 -65
-10 -34 -32 -38 -68 -9 -97 13 -12 27 -23 32 -23 5 0 8 -19 5 -42 -2 -24 2
-64 10 -90 l15 -48 -37 -41 -37 -42 -30 69 c-17 38 -47 90 -67 116 l-36 47 25
15 c31 21 33 77 3 107 -19 19 -28 20 -108 14 -70 -5 -95 -4 -127 10 -49 20
-90 59 -116 109 -23 45 -48 154 -48 213 0 42 0 42 33 37 209 -37 321 -124 336
-262 4 -41 10 -57 21 -57 22 0 24 41 5 91 -13 35 -14 46 -3 63 10 16 10 27 0
54 -15 43 -15 47 3 47 8 0 15 7 15 15 0 9 -9 15 -22 15 -13 1 -34 7 -47 14
-21 11 -31 12 -62 1 -52 -19 -73 -3 -67 50 4 34 0 43 -24 63 -37 31 -74 146
-59 184 8 20 6 29 -5 39 -47 39 -40 83 17 100 21 7 39 18 39 25 0 23 63 86
105 105 22 10 52 19 68 19 15 0 27 3 27 8 0 10 39 72 46 72 3 0 14 -5 25 -10z"/>
<path d="M10848 15438 c-20 -7 -28 -17 -28 -34 0 -21 -4 -23 -24 -18 -44 11
-86 -54 -72 -111 4 -17 13 -25 28 -25 17 0 19 -3 10 -12 -23 -23 -13 -55 27
-87 45 -36 80 -40 88 -11 5 19 6 19 22 -2 21 -25 52 -21 94 13 29 22 37 72 15
85 -9 6 -5 10 12 14 21 5 25 12 28 47 2 32 -2 47 -22 69 -22 26 -27 27 -45 16
-19 -11 -21 -10 -21 12 0 13 -6 28 -12 34 -21 16 -71 21 -100 10z m93 -107
c34 -34 38 -72 9 -101 -42 -42 -103 -36 -135 13 -22 34 -10 74 29 98 43 26 63
24 97 -10z"/>
<path d="M13644 16440 c-127 -161 -478 -617 -826 -1071 l-295 -387 34 -43 c19
-24 231 -298 472 -608 240 -309 444 -573 453 -584 17 -22 17 -21 38 28 41 92
128 369 154 485 61 279 60 248 63 1205 2 484 3 927 1 985 l-3 105 -91 -115z
m-353 -887 c57 -52 109 -147 109 -199 0 -49 -28 -118 -66 -163 -42 -49 -23
-57 28 -12 66 56 104 64 173 32 49 -22 155 -125 155 -150 0 -10 -9 -26 -21
-37 -12 -10 -42 -40 -68 -65 -58 -59 -78 -69 -138 -69 -52 0 -113 24 -153 60
-32 28 -38 10 -16 -55 20 -57 20 -142 2 -186 -12 -30 -12 -42 0 -89 22 -87 19
-124 -17 -165 -34 -38 -63 -44 -107 -21 -49 25 -57 54 -42 151 11 70 11 97 0
154 -13 71 -13 70 17 211 6 24 5 24 -13 8 -44 -38 -117 -68 -166 -68 -60 0
-91 15 -143 72 -22 23 -51 51 -63 60 -35 28 -27 55 34 115 58 57 121 92 166
93 30 0 78 -19 78 -31 0 -8 62 -49 75 -49 4 0 -5 16 -19 35 -39 51 -66 115
-66 157 0 45 29 126 59 165 32 41 102 92 128 92 13 1 43 -19 74 -46z"/>
<path d="M13298 15372 c4 -65 3 -69 -32 -111 -43 -51 -45 -63 -9 -59 42 5 73
58 73 125 0 43 -20 113 -33 113 -1 0 -1 -31 1 -68z"/>
<path d="M13060 15036 c-21 -26 -95 -48 -149 -45 -28 2 -51 3 -51 2 0 -10 85
-43 109 -43 60 0 131 44 131 82 0 22 -23 24 -40 4z"/>
<path d="M13520 15036 c-22 -28 -97 -49 -150 -44 l-51 5 28 -18 c36 -24 83
-33 127 -25 38 7 96 55 96 80 0 20 -33 21 -50 2z"/>
<path d="M11915 15340 c-33 -11 -68 -20 -77 -20 -17 0 -18 -19 -18 -265 0
-302 -7 -284 88 -240 32 15 72 25 98 25 l44 0 0 260 0 260 -37 -1 c-21 0 -65
-9 -98 -19z"/>
<path d="M12107 15353 c-4 -3 -7 -121 -7 -262 l0 -256 47 3 c35 3 64 -4 106
-22 32 -14 64 -26 72 -26 13 0 15 38 15 265 0 246 -1 265 -17 265 -10 0 -47 9
-81 20 -64 20 -123 26 -135 13z"/>
<path d="M12496 15265 c-28 -30 -57 -55 -63 -55 -7 0 -13 18 -15 42 -2 23 -9
43 -15 46 -10 3 -13 -56 -13 -271 0 -232 2 -276 15 -287 13 -11 15 -8 15 14 0
43 26 30 75 -37 15 -21 37 -43 47 -48 18 -10 18 -9 5 18 -8 15 -17 44 -21 64
-8 43 -31 66 -74 75 l-32 7 0 163 0 164 24 0 c38 0 72 35 85 87 7 26 17 53 23
60 6 7 7 13 3 13 -4 0 -30 -25 -59 -55z"/>
<path d="M11743 15293 c-8 -3 -13 -23 -13 -49 0 -40 -2 -44 -24 -44 -18 0 -27
8 -35 30 -18 52 -52 29 -50 -34 3 -96 33 -137 51 -68 7 25 14 32 33 32 l25 0
0 -165 0 -165 -25 0 c-18 0 -28 7 -35 24 -12 34 -27 40 -39 17 -22 -40 -7
-151 19 -151 6 0 15 11 20 25 7 18 17 25 35 25 20 0 25 -5 25 -27 0 -25 0 -26
20 -8 19 17 20 31 20 292 0 150 -3 273 -7 272 -5 0 -14 -3 -20 -6z"/>
<path d="M11906 14770 c-49 -18 -91 -40 -110 -60 l-31 -31 118 3 119 3 15 40
c28 77 28 75 -3 74 -16 -1 -65 -14 -108 -29z"/>
<path d="M12122 14793 c2 -5 12 -32 23 -60 l20 -53 115 0 115 0 -31 31 c-43
43 -258 115 -242 82z"/>
<path d="M12055 14717 c-8 -20 -15 -43 -15 -51 0 -20 28 -35 53 -28 16 4 18
11 14 45 -3 22 -12 47 -21 55 -14 14 -17 12 -31 -21z"/>
<path d="M11810 14072 c-146 -190 -372 -484 -502 -653 -131 -169 -238 -311
-238 -315 0 -35 350 -396 500 -515 166 -133 367 -255 473 -289 44 -14 53 -11
192 58 236 117 509 341 787 644 l80 87 -158 208 c-344 453 -822 1071 -858
1110 -8 8 -80 -79 -276 -335z m420 -48 c88 -37 85 -22 35 -184 -25 -80 -45
-148 -45 -152 0 -4 10 -14 23 -22 16 -11 33 -12 67 -6 25 4 46 7 48 5 2 -2 -2
-13 -8 -26 -7 -12 -16 -35 -20 -51 -8 -27 -6 -30 40 -56 28 -15 50 -29 50 -32
0 -3 -18 -12 -39 -21 -25 -11 -49 -31 -64 -56 -32 -51 -100 -109 -143 -123
l-34 -12 0 -84 c0 -46 3 -84 7 -84 3 0 15 7 25 17 17 15 18 14 18 -27 0 -27
-8 -56 -22 -79 -21 -32 -23 -51 -27 -188 -3 -135 -1 -153 13 -153 37 0 101
143 89 200 -5 29 -4 30 31 30 141 0 174 160 44 214 l-32 14 49 23 c101 47 157
128 184 266 l16 84 42 -64 c54 -81 151 -183 193 -201 l32 -13 -36 -21 c-41
-24 -57 -66 -34 -89 19 -18 78 -32 137 -33 l44 0 -40 -43 c-51 -55 -94 -128
-109 -186 -8 -31 -16 -45 -25 -42 -8 3 -39 7 -69 9 -45 3 -61 -1 -90 -20 -47
-32 -80 -84 -80 -126 0 -29 -3 -33 -17 -27 -10 4 -39 10 -64 12 -133 15 -255
-95 -275 -246 -7 -56 -6 -56 -86 -40 l-55 11 -6 57 c-8 93 -56 165 -136 206
-26 13 -51 16 -105 13 -39 -3 -78 -8 -87 -12 -14 -6 -17 2 -21 44 -6 57 -33
94 -85 116 -38 16 -116 18 -143 4 -15 -8 -19 -5 -25 28 -11 64 -51 138 -101
190 l-49 50 65 5 c72 6 116 22 125 45 7 19 -17 56 -50 78 l-25 16 42 27 c50
32 144 132 193 204 38 56 38 56 49 -48 8 -67 59 -167 104 -205 20 -16 56 -38
79 -47 24 -10 43 -21 43 -24 0 -4 -14 -12 -30 -19 -40 -17 -80 -65 -80 -97 0
-59 59 -113 124 -113 l36 0 -6 -39 c-7 -45 8 -100 44 -153 35 -53 49 -49 58
18 9 80 1 133 -30 178 -19 28 -26 52 -26 84 0 45 0 45 20 27 11 -10 23 -15 28
-11 4 4 8 65 10 134 l3 127 -47 19 c-46 19 -106 72 -152 134 -12 17 -38 37
-57 43 -19 7 -35 15 -35 19 0 3 23 17 50 32 28 16 50 34 50 40 0 7 -9 32 -20
56 l-19 43 37 -6 c20 -4 44 -8 52 -10 8 -2 26 5 39 16 l24 19 -22 73 c-12 39
-32 107 -45 150 l-25 77 32 17 c90 46 256 54 347 17z"/>
<path d="M12000 13651 l-24 -7 32 -23 c18 -12 32 -26 32 -30 0 -5 -18 -21 -40
-36 l-39 -27 -31 22 c-23 17 -35 19 -43 11 -8 -8 -4 -17 13 -36 l23 -24 -24
-20 c-18 -15 -21 -22 -12 -32 9 -9 18 -7 38 10 29 22 31 22 84 -18 l33 -25
-31 -27 c-28 -23 -30 -27 -15 -33 11 -4 29 1 46 14 l29 21 26 -20 c25 -20 63
-28 63 -14 0 3 -14 18 -32 33 l-32 27 47 32 48 32 31 -26 c30 -26 32 -26 45
-9 12 17 11 20 -17 33 -37 18 -37 26 -5 47 26 17 34 44 13 44 -7 0 -24 -9 -38
-19 -21 -17 -28 -18 -50 -6 -14 7 -33 22 -42 32 -17 18 -16 20 12 37 57 33 29
49 -35 19 -33 -16 -36 -16 -57 4 -16 14 -30 18 -48 14z m150 -150 c0 -5 -18
-21 -40 -36 l-40 -28 -35 27 c-19 15 -35 31 -35 36 0 4 17 22 37 38 l38 30 37
-30 c21 -16 38 -33 38 -37z"/>
<path d="M11549 13283 c-18 -63 -16 -186 4 -243 9 -24 15 -46 13 -47 -1 -2
-27 10 -57 27 -64 35 -99 39 -99 10 0 -12 7 -20 16 -20 31 0 130 -61 201 -124
77 -68 136 -112 192 -141 28 -14 35 -14 42 -3 15 22 11 27 -51 58 -33 17 -80
50 -105 74 l-45 43 6 74 c4 41 13 89 21 108 10 25 10 38 3 45 -19 18 -48 -29
-61 -97 -13 -62 -13 -62 -24 -32 -7 17 -18 61 -26 98 -12 62 -11 74 8 137 21
73 20 80 -7 80 -12 0 -22 -15 -31 -47z"/>
<path d="M12545 13313 c30 -79 31 -181 3 -264 l-22 -64 -16 68 c-18 72 -37
101 -57 89 -10 -6 -9 -17 6 -45 28 -55 36 -139 16 -176 -19 -37 -94 -99 -153
-125 -39 -18 -53 -41 -36 -59 14 -13 124 57 210 134 86 76 184 139 218 139 9
0 16 8 16 20 0 28 -27 25 -94 -10 -31 -17 -56 -27 -56 -24 0 3 7 31 16 62 28
96 3 272 -39 272 -14 0 -17 -5 -12 -17z"/>
<path d="M14312 12095 c12 -25 25 -45 28 -45 4 0 12 11 18 25 11 23 9 26 -28
45 l-40 20 22 -45z"/>
<path d="M9842 12112 l-53 -28 24 -23 25 -22 19 28 c21 30 46 73 41 73 -2 -1
-27 -13 -56 -28z"/>
<path d="M10016 11971 c-47 -48 -48 -49 -27 -61 19 -10 26 -7 56 23 32 32 49
87 27 87 -4 0 -29 -22 -56 -49z"/>
<path d="M13697 11634 c-8 -9 56 -104 68 -101 19 6 16 53 -5 80 -20 25 -49 35
-63 21z"/>
<path d="M13787 11514 c-7 -7 46 -88 64 -99 14 -9 39 14 39 35 0 30 -39 70
-69 70 -15 0 -30 -3 -34 -6z"/>
<path d="M13593 11415 c3 -11 9 -32 13 -47 7 -33 15 -35 38 -10 18 20 18 20
-38 62 -17 14 -18 13 -13 -5z"/>
<path d="M10800 11235 c-18 -19 -32 -36 -29 -38 10 -9 51 -28 53 -25 4 5 16
98 13 98 -2 0 -18 -16 -37 -35z"/>
<path d="M13006 11084 c4 -27 8 -50 10 -52 1 -2 12 1 23 8 21 11 21 12 4 41
-33 56 -44 57 -37 3z"/>
<path d="M12455 10998 c4 -40 9 -75 12 -78 10 -10 38 19 45 48 12 44 -13 102
-43 102 -20 0 -21 -3 -14 -72z"/>
<path d="M11626 11053 c-9 -41 -36 -206 -36 -221 0 -29 45 -7 64 31 20 42 33
149 22 191 -9 36 -42 35 -50 -1z"/>
<path d="M11851 11046 c-30 -36 -38 -222 -12 -265 14 -23 39 -5 50 36 15 53
14 216 -1 231 -16 16 -23 15 -37 -2z"/>
<path d="M5075 10784 c-185 -28 -303 -63 -435 -129 -391 -198 -649 -607 -735
-1170 -23 -150 -30 -439 -16 -605 71 -799 495 -1428 1095 -1624 143 -47 237
-60 421 -60 196 0 305 17 462 69 200 67 348 158 493 304 315 317 480 816 480
1448 0 406 -52 677 -181 952 -168 356 -461 622 -821 742 -171 57 -261 70 -508
74 -124 2 -238 1 -255 -1z"/>
<path d="M11648 9500 c-298 -36 -519 -234 -599 -539 -22 -87 -43 -290 -34
-337 7 -39 8 -39 245 -55 178 -12 974 -6 1034 7 l29 7 -7 96 c-21 294 -97 524
-220 667 -102 118 -268 175 -448 154z"/>
<path d="M14172 9499 c-374 -44 -622 -371 -622 -820 l0 -87 33 -5 c17 -4 115
-11 217 -18 187 -12 973 -6 1034 7 l29 7 -6 111 c-16 286 -101 528 -232 662
-117 119 -263 165 -453 143z"/>
</g>
</svg>
