<?xml version="1.0" standalone="no"?>
<!DOCTYPE svg PUBLIC "-//W3C//DTD SVG 20010904//EN"
 "http://www.w3.org/TR/2001/REC-SVG-20010904/DTD/svg10.dtd">
<svg version="1.0" xmlns="http://www.w3.org/2000/svg"
 width="3200.000000pt" height="3200.000000pt" viewBox="0 0 3200.000000 3200.000000"
 preserveAspectRatio="xMidYMid meet">
<metadata>
Created by potrace 1.16, written by Peter Selinger 2001-2019
</metadata>
<g transform="translate(0.000000,3200.000000) scale(0.100000,-0.100000)"
fill="#000000" stroke="none">
<path d="M0 16000 l0 -16000 16000 0 16000 0 0 16000 0 16000 -16000 0 -16000
0 0 -16000z m13344 7668 c8 -24 16 -52 18 -63 2 -14 12 -21 33 -23 42 -5 55
-19 55 -58 0 -33 -1 -34 -39 -34 -33 0 -40 -4 -51 -30 -23 -56 13 -105 92
-124 50 -12 128 36 128 78 0 12 -14 33 -32 48 l-33 28 38 36 c30 28 44 34 63
30 19 -5 32 2 66 38 38 39 91 67 104 54 2 -3 -16 -52 -41 -109 -35 -81 -98
-262 -130 -376 -3 -9 -19 -6 -60 8 -122 43 -393 45 -507 4 -24 -9 -47 -17 -51
-18 -5 -1 -26 52 -48 118 -22 66 -66 176 -99 244 -33 68 -60 125 -60 127 0 10
39 2 77 -15 27 -13 48 -31 59 -53 22 -43 19 -41 44 -28 28 15 55 5 81 -31 l22
-31 -32 -28 c-35 -33 -37 -40 -16 -79 43 -84 205 -44 205 51 0 41 -15 58 -52
58 -25 0 -28 4 -28 33 0 44 9 55 50 59 32 3 35 6 42 46 4 23 17 56 28 72 27
38 52 28 74 -32z m2787 31 c12 -17 24 -51 27 -75 5 -44 5 -44 43 -44 44 0 65
-25 55 -66 -5 -19 -13 -24 -36 -24 -52 0 -68 -68 -26 -113 31 -33 86 -48 130
-36 40 11 54 26 62 67 5 25 2 33 -20 47 -53 35 -20 96 54 100 29 2 45 9 60 28
27 34 85 69 109 65 17 -3 14 -14 -32 -113 -28 -60 -72 -171 -98 -245 -26 -74
-51 -134 -56 -133 -4 1 -27 9 -51 18 -114 41 -385 39 -507 -4 -41 -14 -57 -17
-59 -8 -32 111 -106 322 -137 391 -22 48 -38 91 -35 93 13 14 65 -13 104 -53
34 -36 47 -43 66 -38 19 4 33 -2 63 -30 l38 -35 -32 -30 c-18 -16 -33 -36 -33
-44 0 -25 39 -65 76 -77 64 -21 154 30 154 87 0 32 -29 62 -63 65 -28 3 -32 7
-35 34 -3 35 11 51 52 56 26 3 31 9 42 51 13 50 38 97 54 97 5 0 19 -14 31
-31z m2828 -5 c14 -18 21 -41 21 -70 l0 -44 40 0 c29 0 42 -5 50 -20 16 -31 2
-69 -29 -76 -49 -11 -51 -13 -51 -53 0 -32 6 -44 31 -65 65 -55 189 -19 189
55 0 24 -6 32 -30 40 -36 13 -38 29 -6 66 20 23 31 27 67 26 39 -2 46 1 61 26
20 35 53 59 96 67 l32 6 -40 -83 c-36 -76 -121 -325 -135 -391 l-5 -27 -58 20
c-120 42 -413 42 -534 0 l-57 -19 -6 31 c-14 65 -79 255 -121 354 -24 57 -44
105 -44 108 0 3 8 5 18 5 29 0 101 -57 108 -85 6 -26 18 -32 29 -15 12 20 57
10 86 -19 37 -37 37 -54 -1 -68 -40 -15 -41 -54 -1 -94 58 -57 176 -29 195 47
8 32 -18 76 -42 72 -27 -4 -42 11 -42 41 0 34 17 51 51 51 30 0 39 15 39 64 0
39 24 76 50 76 10 0 28 -12 39 -26z m-5430 -571 c30 -10 56 -23 58 -30 9 -28
-46 -45 -182 -56 -256 -21 -469 22 -372 75 74 41 387 48 496 11z m2811 0 c30
-10 55 -22 55 -27 0 -5 -12 -18 -27 -29 -80 -60 -558 -40 -558 23 0 15 37 31
108 46 94 19 348 12 422 -13z m2738 17 c97 -11 137 -27 137 -55 0 -30 -60 -45
-205 -52 -194 -9 -390 20 -390 57 0 45 257 73 458 50z m-650 -1280 c1 -531 -2
-1280 -7 -1665 -8 -616 -12 -718 -30 -851 -120 -881 -467 -1574 -1131 -2258
-301 -310 -609 -548 -901 -695 -176 -90 -232 -106 -301 -91 -82 17 -320 138
-460 233 -498 336 -1024 912 -1346 1474 -172 302 -323 727 -391 1103 -56 308
-53 201 -58 2028 l-5 1692 2314 -2 2313 -3 3 -965z m-5139 -1246 c11 -14 23
-41 27 -60 5 -29 10 -34 34 -34 35 0 62 -31 58 -66 -2 -23 -9 -30 -37 -35 -58
-12 -68 -59 -23 -110 23 -25 38 -33 78 -36 65 -6 104 21 104 74 0 29 -5 36
-30 46 -16 6 -30 14 -30 18 0 4 16 21 35 38 36 32 63 39 81 21 7 -7 22 5 47
34 34 41 100 77 114 62 4 -3 -21 -70 -55 -148 -33 -79 -75 -185 -93 -236 -36
-106 -20 -97 -144 -72 -78 16 -378 7 -458 -13 -42 -11 -59 -12 -61 -3 -11 48
-105 316 -132 375 -35 77 -41 101 -24 101 27 0 80 -31 96 -57 25 -38 33 -43
65 -36 20 4 35 -3 63 -27 20 -18 36 -35 36 -39 0 -3 -15 -13 -33 -21 -41 -19
-45 -49 -12 -89 22 -25 34 -31 66 -31 76 0 139 44 139 97 0 30 -26 53 -60 53
-40 0 -57 32 -35 66 8 13 23 24 33 25 9 1 26 2 37 3 13 1 21 9 23 26 5 48 12
69 28 84 22 23 40 20 63 -10z m5705 7 c9 -10 20 -38 24 -62 7 -40 10 -44 34
-41 17 2 34 -4 47 -17 38 -38 21 -81 -31 -81 -48 0 -63 -58 -27 -103 45 -59
155 -61 189 -4 11 18 20 35 20 40 0 10 -34 43 -50 49 -21 7 -1 47 32 64 24 12
36 14 55 5 32 -14 33 -14 33 8 0 30 38 70 81 82 21 7 42 9 45 6 4 -3 -16 -59
-44 -124 -42 -99 -65 -165 -118 -342 -3 -10 -13 -12 -37 -7 -96 21 -156 26
-292 26 -85 -1 -180 -7 -220 -14 -38 -8 -73 -11 -78 -7 -4 4 -27 60 -52 126
-25 65 -68 168 -95 228 -28 60 -50 111 -50 113 0 2 7 4 15 4 28 0 94 -40 117
-70 18 -25 27 -30 49 -25 19 4 34 -1 58 -20 38 -32 39 -48 6 -63 -33 -15 -33
-51 2 -92 25 -30 30 -32 81 -28 45 4 60 10 79 32 22 26 29 68 17 100 -4 10
-18 16 -39 16 -27 0 -33 4 -38 25 -7 37 22 68 61 67 28 -1 32 3 32 24 0 41 40
104 65 104 7 0 19 -8 29 -19z m206 -577 c58 -17 69 -30 46 -52 -14 -15 -49
-17 -254 -20 -247 -3 -317 5 -317 38 0 51 384 76 525 34z m-5684 -9 c34 -26
33 -37 -1 -54 -39 -19 -441 -22 -502 -3 -73 22 -68 45 14 68 35 10 105 13 255
11 189 -2 209 -4 234 -22z m420 -2310 c6 -43 8 -46 30 -41 41 11 66 -10 62
-52 -2 -31 -7 -38 -28 -40 -37 -6 -50 -21 -50 -58 0 -64 71 -108 145 -90 63
16 91 97 40 116 -33 13 -32 43 2 70 22 17 36 20 66 16 33 -6 38 -3 46 17 21
53 121 105 121 62 0 -9 -16 -48 -36 -88 -20 -39 -61 -134 -90 -211 -29 -76
-57 -143 -62 -148 -6 -6 -39 -3 -88 8 -119 26 -344 24 -448 -5 -44 -11 -81
-20 -83 -18 -2 2 -17 51 -34 108 -35 115 -76 224 -114 299 -31 61 -31 70 -2
70 45 0 106 -56 107 -98 0 -22 1 -22 22 -8 33 23 61 20 91 -12 35 -37 35 -60
0 -64 -23 -2 -29 -9 -31 -33 -6 -65 88 -105 162 -70 79 38 81 127 4 133 -45 4
-54 24 -30 66 15 25 25 31 50 30 34 -2 33 -3 46 75 4 19 14 43 23 54 17 18 18
18 45 -12 16 -18 29 -47 34 -76z m4437 67 c10 -17 19 -48 21 -69 2 -33 5 -38
26 -35 33 3 60 -25 60 -65 0 -30 -3 -33 -29 -33 -42 0 -64 -26 -57 -64 10 -51
47 -79 110 -84 51 -4 57 -2 86 26 40 41 40 76 0 91 -36 12 -38 29 -9 66 20 24
26 26 65 20 40 -6 44 -4 58 24 20 38 67 71 100 71 14 0 26 -3 26 -6 0 -4 -20
-50 -44 -103 -24 -53 -63 -156 -86 -228 -48 -150 -40 -144 -144 -117 -83 22
-418 15 -485 -10 -24 -9 -47 -16 -51 -16 -4 0 -17 39 -29 87 -28 109 -83 252
-121 315 -35 57 -38 78 -10 78 35 0 77 -27 99 -65 19 -33 24 -35 55 -30 40 8
74 -7 85 -38 11 -29 3 -47 -19 -47 -44 0 -28 -83 20 -107 88 -45 214 39 166
111 -11 18 -25 26 -46 26 -27 0 -30 3 -30 34 0 43 24 70 56 62 25 -7 23 -9 39
67 6 31 44 79 59 74 6 -2 19 -18 29 -35z m-4250 -570 c26 -11 47 -26 47 -31 0
-34 -131 -61 -294 -61 -275 0 -396 72 -185 109 30 6 128 9 219 7 143 -2 171
-5 213 -24z m4367 17 c89 -11 153 -34 147 -53 -2 -6 -28 -20 -58 -31 -47 -17
-80 -19 -244 -19 -164 0 -197 2 -244 19 -30 11 -56 25 -58 32 -16 49 244 79
457 52z m684 -680 c25 -22 44 -45 40 -50 -3 -5 -25 -9 -49 -9 -46 0 -81 -22
-69 -43 4 -7 16 -22 27 -34 19 -21 29 -23 122 -22 111 1 147 -10 184 -57 30
-39 29 -111 -4 -155 -13 -19 -35 -54 -49 -79 -13 -25 -37 -57 -53 -72 l-28
-26 -24 38 c-13 21 -34 43 -47 49 -20 9 -26 6 -44 -16 -11 -14 -23 -36 -26
-49 -7 -28 18 -76 51 -101 23 -16 25 -22 16 -44 -10 -28 -32 -42 -47 -31 -5 4
-22 34 -37 67 -39 82 -134 253 -164 293 -21 28 -30 32 -69 32 -24 0 -44 4 -44
9 0 13 64 41 93 41 14 0 96 -36 182 -80 86 -44 158 -80 161 -80 3 0 -4 13 -15
29 -12 16 -21 32 -21 36 0 4 22 4 48 0 40 -5 52 -3 73 14 23 19 23 21 9 48
-24 42 -55 53 -158 53 -112 0 -142 13 -171 73 -16 34 -19 50 -12 75 11 38 62
132 71 132 4 0 28 -18 54 -41z m-6055 -23 c29 -15 91 -80 91 -95 0 -5 -21 -28
-47 -52 -52 -48 -61 -42 -44 26 13 53 6 75 -25 75 -37 0 -54 -39 -69 -159 -8
-60 -21 -123 -29 -139 -18 -35 -70 -62 -119 -62 -30 0 -43 8 -86 56 -28 30
-51 61 -51 67 0 16 81 97 97 97 16 0 16 -3 -2 -47 -29 -70 -15 -113 36 -113
52 0 79 55 79 165 0 97 14 132 68 166 52 33 62 35 101 15z m195 -234 c-2 -55
-31 -114 -142 -285 -54 -84 -102 -160 -105 -169 -9 -26 -22 -22 -51 13 -34 40
-32 61 6 79 18 8 40 27 51 42 l19 26 -32 41 c-19 23 -39 41 -46 41 -26 0 -62
-23 -73 -47 -14 -30 -41 -27 -57 6 -18 35 -8 49 47 60 53 12 228 96 296 143
27 18 45 39 49 56 11 52 14 56 27 43 6 -6 11 -29 11 -49z m5611 -118 c42 -46
45 -92 5 -66 -28 17 -60 15 -60 -4 0 -22 245 -262 276 -270 32 -8 30 -26 -7
-69 -40 -45 -60 -44 -81 3 -18 40 -226 252 -247 252 -18 0 -26 -30 -13 -51 7
-10 12 -31 12 -46 l0 -27 -40 39 c-61 60 -57 77 57 213 25 28 51 52 59 52 8 0
26 -12 39 -26z m-5529 -16 c9 -18 34 -56 54 -83 52 -68 63 -98 50 -144 -10
-37 -56 -89 -97 -110 -32 -16 -59 -14 -106 10 l-41 22 -38 -44 c-21 -24 -44
-59 -50 -76 -7 -18 -18 -33 -24 -33 -13 0 -64 60 -64 75 0 5 56 66 125 136
127 129 155 171 155 232 0 29 6 47 16 47 2 0 11 -15 20 -32z m2733 -42 c13
-13 25 -42 28 -65 5 -36 9 -41 31 -41 29 0 72 -36 72 -60 0 -20 -19 -40 -39
-40 -37 0 -62 -51 -45 -95 15 -39 124 -62 172 -36 40 21 46 111 8 111 -30 0
-27 21 7 55 33 33 37 34 63 23 21 -10 28 -10 31 -1 15 45 84 93 132 93 18 0
14 -13 -38 -119 -46 -96 -105 -253 -128 -340 -2 -9 -13 -12 -36 -8 -17 3 -66
11 -107 17 -49 8 -124 10 -215 6 -129 -6 -176 -11 -247 -31 -26 -7 -26 -6 -67
122 -22 70 -61 175 -86 232 -32 73 -42 108 -35 115 16 16 80 -22 105 -61 18
-28 24 -31 56 -26 31 4 39 1 62 -27 32 -38 34 -50 7 -50 -29 0 -44 -35 -30
-70 34 -82 184 -72 214 14 14 39 -20 82 -63 78 -29 -2 -31 0 -31 30 0 44 11
59 51 67 29 6 35 13 46 50 12 41 38 81 53 81 3 0 17 -11 29 -24z m2591 -162
c0 -20 222 -247 265 -270 43 -23 44 -39 3 -81 -38 -39 -54 -41 -62 -9 -7 28
-212 246 -247 263 -13 6 -32 14 -42 17 -18 6 -18 7 0 37 33 57 83 83 83 43z
m-5113 -56 l32 -33 -63 -48 c-91 -66 -246 -244 -246 -280 0 -29 -26 -19 -64
24 -40 43 -42 62 -9 67 39 6 273 258 273 294 0 37 26 29 77 -24z m136 -146
l87 -88 -28 -34 c-35 -42 -62 -37 -62 12 0 36 -23 78 -43 78 -17 0 -87 -72
-87 -90 0 -24 21 -40 52 -40 32 0 34 -6 12 -40 -35 -52 -74 -66 -74 -27 0 24
-25 67 -40 67 -10 0 -120 -127 -120 -140 0 -12 100 -60 126 -60 34 0 37 -16 8
-39 -51 -40 -81 -29 -161 55 -72 75 -88 104 -57 104 38 0 284 269 284 311 0
10 3 19 8 19 4 0 47 -40 95 -88z m4817 47 c0 -17 100 -145 180 -230 l70 -74
20 24 c13 15 20 38 20 65 0 22 5 48 10 56 9 13 11 13 20 0 5 -8 17 -34 26 -57
l16 -42 -52 -60 c-29 -33 -63 -67 -76 -76 -22 -14 -24 -14 -35 8 -30 57 -235
297 -254 297 -7 0 -18 7 -25 15 -9 11 -6 21 15 50 26 33 65 48 65 24z m-4665
-115 c25 -51 24 -151 -3 -256 -14 -56 -16 -75 -7 -72 19 8 72 77 92 121 10 21
19 40 20 42 2 3 18 -9 36 -26 17 -17 46 -39 63 -50 72 -42 194 -136 194 -148
0 -19 -49 -75 -66 -75 -10 0 -14 12 -14 40 0 22 -4 40 -10 40 -23 0 -204 -258
-218 -311 l-7 -29 -40 21 c-44 23 -75 48 -75 60 0 4 13 12 29 17 16 6 52 39
84 79 60 75 147 202 147 215 0 18 -33 20 -67 4 -45 -21 -61 -9 -33 26 29 38
25 56 -6 27 -14 -13 -76 -83 -137 -156 -61 -73 -116 -134 -124 -137 -20 -8
-16 18 28 189 22 86 37 160 34 163 -7 7 -17 -5 -105 -120 -32 -43 -61 -87 -65
-98 -8 -26 -28 -25 -62 4 l-28 24 52 47 c51 45 192 204 226 255 12 17 17 45
17 88 0 74 14 79 45 16z m4555 12 c0 -35 222 -297 275 -324 19 -10 19 -12 -14
-46 -36 -37 -71 -47 -71 -22 0 33 -207 282 -247 297 -31 12 -29 40 6 78 31 33
51 40 51 17z m-48 -166 c35 -35 39 -43 36 -82 -3 -41 -2 -43 27 -46 66 -8 132
-94 115 -153 -14 -48 -87 -124 -167 -173 -82 -50 -93 -54 -93 -31 0 8 -13 29
-29 47 l-30 33 -46 -25 c-26 -14 -49 -30 -52 -37 -6 -16 23 -69 49 -88 l23
-16 -33 -30 c-19 -17 -38 -29 -44 -27 -6 2 -19 42 -28 89 -24 116 -68 270 -86
296 -9 14 -32 27 -60 34 -58 15 -51 33 14 37 65 4 88 -8 230 -120 62 -49 128
-98 147 -109 31 -19 35 -19 35 -4 0 9 -5 26 -12 38 -36 70 -210 267 -234 267
-27 0 -23 21 12 60 47 52 98 79 148 80 32 0 45 -7 78 -40z m-2128 20 c67 -7
95 -14 109 -29 19 -19 19 -19 -9 -37 -25 -17 -54 -19 -259 -22 -191 -3 -238
-1 -268 12 -61 25 -45 55 40 75 51 12 277 13 387 1z m1707 -286 c11 -25 18
-52 15 -60 -5 -13 -10 -12 -35 5 -67 48 -65 9 6 -111 64 -107 114 -171 146
-186 33 -16 28 -25 -31 -63 -56 -35 -62 -36 -62 -5 0 31 -87 205 -140 278 -50
70 -70 69 -70 -3 0 -27 -4 -49 -10 -49 -23 0 -64 97 -54 125 3 8 15 17 27 21
12 4 53 26 91 50 39 24 76 44 84 44 7 0 22 -21 33 -46z m-3611 -4 c22 -11 40
-26 40 -33 0 -7 -14 -26 -31 -43 -40 -38 -165 -222 -191 -280 -12 -28 -16 -50
-11 -55 15 -15 102 61 204 175 l91 101 -5 53 c-7 65 8 66 41 2 29 -57 28 -85
-8 -265 -16 -82 -30 -166 -30 -185 0 -54 -12 -66 -48 -51 -17 7 -38 21 -47 31
-15 16 -14 20 10 56 36 52 30 83 -20 111 -22 13 -43 23 -48 23 -12 0 -47 -63
-47 -87 0 -12 -5 -25 -10 -28 -13 -8 -144 62 -172 92 l-21 22 38 42 c51 56
171 242 191 296 9 24 21 43 26 43 5 0 27 -9 48 -20z m3366 -135 c14 -25 24
-49 20 -52 -3 -3 -23 -1 -44 6 -53 18 -76 12 -80 -21 -4 -34 19 -50 118 -83
41 -14 90 -34 108 -45 43 -26 66 -80 57 -132 -6 -33 -16 -46 -68 -84 -34 -24
-67 -44 -74 -44 -6 0 -26 20 -43 44 -34 51 -40 82 -12 71 104 -45 144 -35 128
30 -8 31 -52 59 -123 80 -94 27 -165 112 -143 170 12 32 89 105 112 105 10 0
29 -19 44 -45z m-2830 -134 c66 -31 84 -44 84 -61 0 -19 1 -20 24 -5 28 18 56
13 178 -32 77 -29 81 -38 48 -104 -21 -40 -40 -44 -40 -8 0 29 -19 61 -31 53
-29 -18 -101 -257 -101 -336 0 -45 -2 -48 -25 -48 -37 0 -103 21 -103 33 0 6
9 20 20 32 33 35 110 270 110 338 0 26 -35 21 -54 -8 -21 -32 -36 -32 -36 1 0
22 -2 24 -15 14 -20 -17 -35 -4 -35 31 0 25 -6 33 -36 45 -33 14 -38 14 -54
-1 -21 -19 -49 -93 -43 -112 3 -8 22 -13 49 -13 42 0 44 -1 44 -31 0 -17 -5
-39 -11 -51 -11 -20 -12 -19 -44 12 -20 19 -40 30 -48 27 -19 -7 -59 -113 -55
-146 3 -26 4 -26 81 -25 71 0 78 -2 75 -19 -2 -10 -15 -26 -30 -35 -26 -15
-32 -15 -93 1 -81 22 -175 62 -175 76 0 5 16 19 34 31 28 17 41 37 65 98 36
94 71 225 71 265 0 28 2 29 31 23 17 -3 69 -24 115 -45z m2380 -27 c46 -30 82
-69 166 -179 34 -44 81 -103 104 -131 l44 -52 -48 -20 c-25 -11 -50 -18 -54
-16 -5 3 -8 18 -8 34 0 16 -11 41 -24 57 -24 28 -25 28 -68 13 -39 -14 -43
-18 -46 -51 -2 -27 3 -44 22 -66 l26 -30 -43 -17 c-23 -9 -46 -16 -50 -16 -4
0 -7 39 -7 88 0 48 -5 143 -12 211 l-12 123 -48 32 c-26 17 -48 34 -48 39 0
17 70 5 106 -19z m-105 -84 c3 -30 22 -116 42 -190 44 -170 51 -207 37 -215
-16 -10 -36 10 -110 110 -89 119 -114 145 -118 123 -4 -21 35 -167 59 -225 17
-39 17 -42 0 -57 -23 -21 -57 -21 -65 0 -3 9 -6 37 -6 64 0 92 -55 307 -88
344 -10 10 -34 27 -55 37 -43 23 -41 39 6 39 59 -1 110 -34 205 -135 50 -54
92 -95 92 -90 0 23 -45 155 -63 184 l-20 34 23 19 c38 31 54 20 61 -42z m-291
-48 c0 -4 -5 -13 -10 -18 -15 -15 46 -318 71 -363 26 -43 19 -58 -28 -67 -21
-4 -54 -13 -75 -21 -32 -13 -40 -13 -68 2 -17 9 -52 45 -78 80 -25 35 -50 62
-54 59 -4 -3 -8 -27 -8 -54 0 -37 5 -54 22 -69 32 -31 10 -51 -58 -51 l-53 0
6 48 c9 83 -15 262 -52 378 -8 27 8 34 100 41 67 5 72 4 102 -24 45 -42 56
-91 41 -181 -12 -70 -11 -76 11 -117 12 -23 36 -56 52 -71 56 -53 59 -4 13
216 -13 63 -29 134 -36 158 -11 37 -10 44 2 52 18 12 100 13 100 2z m-1380
-13 c103 -23 140 -72 140 -186 0 -173 -68 -273 -185 -273 -45 0 -125 20 -125
31 0 4 9 23 19 41 28 49 52 169 58 291 7 121 3 117 93 96z m371 -56 c49 -41
61 -81 60 -203 0 -135 -21 -204 -70 -237 -47 -32 -83 -29 -126 8 -47 42 -58
85 -53 215 5 132 24 179 90 218 54 32 59 32 99 -1z m598 -20 c-1 -50 -12 -86
-27 -91 -6 -2 -12 4 -12 14 0 18 -27 54 -42 54 -20 0 1 -340 23 -367 17 -20
-4 -39 -50 -47 -68 -11 -66 -16 -66 198 0 107 -4 198 -9 203 -4 4 -25 -11 -45
-35 -39 -45 -51 -46 -51 -1 0 43 17 77 42 85 28 9 127 21 191 23 l47 1 -1 -37z
m-331 16 c26 -9 32 -17 37 -52 6 -45 -6 -103 -21 -100 -5 0 -16 23 -25 50 -16
51 -37 64 -59 38 -18 -22 -25 -187 -11 -256 13 -64 42 -99 65 -80 7 6 21 31
31 56 18 49 45 61 45 20 0 -68 -56 -145 -105 -145 -75 0 -117 72 -123 211 -5
124 13 194 63 238 39 34 55 37 103 20z m-8558 -89 c211 -26 512 -100 717 -175
130 -48 356 -158 471 -229 316 -196 593 -474 769 -773 151 -257 261 -577 308
-893 34 -235 29 -735 -12 -1015 -21 -149 -91 -422 -148 -580 -60 -169 -194
-441 -285 -580 -305 -465 -721 -789 -1250 -970 -223 -76 -560 -138 -823 -152
-227 -11 -204 -17 438 -103 586 -79 877 -120 2010 -289 1705 -254 2212 -319
2725 -351 670 -41 1297 51 1708 252 177 86 308 191 420 336 63 82 66 83 158
43 l45 -20 -60 -113 c-76 -144 -132 -277 -188 -447 -25 -75 -51 -146 -59 -158
-30 -48 -234 -188 -384 -263 -433 -218 -1088 -301 -1850 -234 -444 38 -819 95
-1970 300 -534 95 -2248 383 -2554 429 -673 101 -1109 112 -1432 35 -100 -23
-244 -78 -322 -122 -30 -17 -132 -106 -235 -204 -99 -96 -184 -174 -187 -174
-17 0 -100 75 -100 90 0 10 48 82 106 161 58 79 131 187 161 239 30 52 85 146
121 208 l67 112 180 71 c99 39 217 81 262 94 93 27 329 75 370 75 49 0 17 10
-98 30 -484 87 -922 280 -1279 566 -129 103 -345 325 -446 459 -271 362 -430
732 -515 1200 -27 151 -39 609 -20 776 69 609 335 1184 741 1603 372 383 800
622 1320 736 206 45 274 50 665 45 204 -2 408 -9 455 -15z m17555 -1620 l28
-29 -18 -83 c-76 -355 -234 -798 -406 -1140 l-74 -147 -139 -115 c-96 -81
-147 -116 -164 -116 -27 0 -62 25 -62 44 0 7 23 88 50 181 128 429 209 836
211 1058 0 45 4 90 8 100 4 11 51 38 116 66 131 57 270 127 345 175 30 19 60
35 66 35 5 1 23 -12 39 -29z m1664 -135 c220 -33 577 -123 626 -159 19 -14 20
-24 17 -218 -4 -241 -17 -597 -23 -602 -2 -2 -47 -6 -100 -10 l-96 -6 -6 107
c-11 180 -49 281 -145 385 -100 108 -233 181 -413 227 -299 76 -648 35 -824
-98 -133 -101 -221 -326 -196 -501 17 -119 46 -177 130 -261 137 -136 315
-203 781 -294 755 -147 1057 -328 1157 -695 14 -51 18 -101 17 -230 0 -146 -3
-177 -27 -263 -119 -443 -490 -764 -1046 -908 -166 -43 -329 -59 -596 -59
-336 0 -548 29 -850 118 -152 44 -139 15 -106 237 18 126 26 238 47 698 l6
137 102 0 103 0 6 -172 c11 -274 43 -364 173 -488 162 -153 461 -250 776 -250
368 0 675 155 808 410 l45 85 0 165 c0 162 -1 166 -29 225 -34 68 -122 166
-181 200 -47 27 -171 64 -455 135 -563 141 -873 250 -1046 368 -56 38 -151
128 -192 182 -107 141 -165 381 -142 589 48 436 297 724 752 870 125 39 167
49 308 71 152 24 470 26 619 5z m-10961 -6 c695 -75 1151 -508 1222 -1161 11
-107 13 -391 3 -451 -7 -48 -16 -52 -187 -77 -413 -60 -623 -71 -1464 -77
l-753 -5 6 -92 c23 -333 87 -571 210 -781 189 -322 471 -495 899 -551 341 -45
616 25 1008 257 l120 71 39 -27 c22 -14 42 -32 45 -39 9 -24 -120 -248 -168
-293 -66 -61 -361 -199 -588 -274 -206 -68 -331 -90 -532 -96 -550 -17 -968
138 -1292 478 -250 263 -378 566 -417 982 -15 164 -6 553 16 701 56 377 188
655 408 862 162 153 356 284 582 394 338 164 555 211 843 179z m3397 1 c342
-38 615 -158 834 -366 246 -234 375 -538 396 -939 7 -126 -7 -331 -23 -347
-21 -21 -463 -80 -742 -98 -85 -6 -438 -13 -785 -15 -346 -3 -686 -8 -754 -11
l-123 -6 7 -122 c29 -497 231 -903 551 -1102 316 -197 784 -259 1112 -148 101
34 340 149 469 225 l101 60 51 -31 c28 -18 51 -34 51 -38 0 -10 -83 -157 -121
-214 -56 -82 -96 -111 -284 -203 -336 -166 -645 -245 -954 -245 -694 0 -1234
307 -1493 848 -54 114 -123 326 -145 447 -15 85 -18 154 -18 460 0 355 1 362
28 490 88 413 245 681 522 891 249 189 459 304 718 393 215 74 390 95 602 71z
m3880 -14 c138 -24 231 -52 340 -106 315 -154 505 -450 555 -865 8 -65 15
-417 20 -1010 8 -932 13 -1048 50 -1131 33 -75 73 -89 355 -114 183 -17 165
-3 165 -125 l0 -105 -590 0 -590 0 -1 313 c0 171 -4 695 -9 1162 -7 833 -8
852 -29 930 -82 297 -290 511 -564 579 -247 63 -466 34 -711 -91 -79 -41 -108
-63 -222 -177 -105 -105 -138 -146 -169 -205 l-38 -74 -5 -936 c-4 -966 0
-1127 33 -1178 34 -52 156 -80 415 -98 52 -3 107 -8 123 -11 l27 -6 0 -104 0
-104 -920 0 -920 0 0 105 0 104 33 5 c17 3 93 10 167 16 284 24 333 39 371
117 l24 48 3 765 c3 836 -10 1632 -28 1692 -12 43 -47 73 -99 88 -20 6 -130
15 -246 20 -115 5 -211 9 -213 10 -2 0 9 193 12 197 1 2 51 10 112 18 261 39
584 124 862 227 157 59 164 61 202 48 l40 -13 1 -241 c1 -133 4 -271 8 -307
l6 -66 185 160 c269 232 476 396 529 419 56 24 148 46 244 58 97 12 361 4 472
-14z m-11982 3 l24 -11 6 -531 c4 -293 7 -809 7 -1147 1 -732 7 -852 46 -969
63 -191 185 -311 375 -369 156 -48 426 -54 584 -12 166 43 299 124 451 275
103 101 176 207 224 322 32 75 33 84 41 273 17 415 3 1431 -21 1532 -15 60
-54 103 -110 118 -24 6 -136 16 -249 20 -113 5 -207 10 -208 10 -2 0 -3 45 -3
99 0 107 2 111 60 111 46 0 247 38 400 75 201 50 328 88 520 157 141 51 170
59 200 52 l35 -9 2 -195 c2 -107 7 -796 12 -1530 7 -921 13 -1346 21 -1372 14
-48 58 -84 120 -97 27 -6 121 -18 207 -26 87 -9 173 -18 191 -21 l32 -5 0
-104 0 -105 -616 0 -617 0 7 78 c13 147 25 557 17 565 -5 5 -71 -49 -147 -120
-377 -351 -443 -405 -565 -468 -162 -83 -364 -125 -611 -125 -257 0 -424 32
-587 111 -91 44 -117 63 -191 138 -91 92 -147 182 -190 309 -48 145 -50 191
-60 1153 -11 1087 -17 1188 -75 1257 -33 39 -85 51 -274 62 -86 5 -158 10
-160 10 -5 0 4 188 10 194 2 2 61 14 130 25 241 39 515 120 766 225 135 58
158 63 196 45z m15585 -3888 c66 -34 110 -95 257 -354 43 -76 82 -136 87 -135
5 2 69 109 142 238 l133 235 77 3 c59 2 76 0 76 -11 0 -7 -39 -69 -86 -138
-48 -68 -133 -196 -190 -284 l-104 -160 1 -110 c1 -218 14 -248 114 -260 64
-8 90 -30 60 -51 -15 -11 -72 -14 -279 -14 -144 0 -271 3 -283 6 -27 7 -31 40
-5 48 9 2 42 10 73 16 31 6 64 17 74 24 24 17 34 85 34 230 l1 119 -62 101
c-155 255 -263 389 -329 406 -41 11 -52 37 -25 59 11 9 150 46 189 50 4 1 24
-8 45 -18z m-2746 -23 c42 -19 59 -33 64 -52 7 -30 -11 -175 -24 -188 -18 -18
-41 5 -52 54 -15 62 -59 114 -108 128 -54 14 -151 12 -209 -5 -96 -28 -135
-80 -135 -177 0 -117 52 -147 307 -178 178 -21 255 -63 291 -155 22 -60 15
-164 -16 -228 -64 -134 -194 -220 -364 -239 -111 -13 -266 -1 -350 28 l-48 17
7 111 c4 61 9 114 12 119 14 22 63 -3 63 -32 0 -9 11 -40 25 -69 35 -75 83
-96 220 -96 92 -1 104 2 154 29 29 16 64 44 77 61 48 63 52 196 7 236 -29 26
-100 45 -233 62 -226 31 -294 68 -320 176 -18 74 -8 200 19 243 43 71 148 151
231 178 14 5 93 7 175 6 139 -2 154 -5 207 -29z m-2347 10 c8 -8 -12 -181 -26
-225 -20 -61 -46 -35 -68 66 -5 24 -14 48 -20 54 -6 6 -41 14 -78 18 -83 10
-315 11 -337 3 -14 -5 -16 -31 -16 -185 l0 -179 125 0 c158 0 195 12 195 64 0
54 8 66 46 66 l34 0 0 -185 0 -185 -35 0 c-37 0 -41 7 -47 74 -5 54 -39 68
-188 74 l-133 5 6 -114 c4 -63 7 -154 7 -203 l0 -88 206 4 206 3 23 27 c13 15
28 49 33 75 16 72 30 103 47 103 8 0 18 -11 21 -26 10 -39 -1 -263 -13 -275
-17 -17 -908 -8 -925 9 -11 11 -10 16 6 28 11 8 31 14 45 14 14 0 43 5 64 11
66 18 70 38 75 379 4 335 -5 472 -35 502 -13 13 -44 23 -94 30 -81 11 -100 21
-81 40 9 9 67 15 180 19 217 8 768 6 777 -3z m-5696 -7 c22 -14 -3 -39 -48
-46 -60 -10 -88 -25 -100 -53 -18 -39 -25 -322 -13 -504 13 -186 28 -230 93
-277 59 -43 107 -54 229 -49 89 3 112 7 150 28 51 29 97 90 110 146 5 21 10
171 10 332 0 339 -3 356 -67 368 -95 16 -108 20 -108 34 0 23 97 32 278 27
102 -3 163 -9 170 -16 16 -16 -4 -27 -62 -36 -62 -9 -88 -28 -100 -72 -6 -21
-15 -182 -21 -357 -10 -312 -11 -320 -36 -377 -32 -70 -88 -125 -168 -163 -50
-24 -74 -28 -179 -33 -268 -11 -396 37 -468 178 -24 48 -27 82 -39 454 -5 162
-13 293 -20 312 -12 33 -38 48 -104 57 -45 6 -61 18 -53 40 6 14 40 16 269 16
145 0 269 -4 277 -9z m1373 -28 c87 -114 642 -756 659 -762 16 -5 8 668 -9
696 -12 22 -44 34 -132 50 -62 11 -61 35 2 45 26 5 137 7 245 6 190 -3 198 -4
198 -23 0 -17 -10 -22 -70 -31 -80 -14 -101 -32 -109 -97 -3 -23 -7 -234 -9
-469 -1 -235 -5 -430 -9 -433 -3 -4 -43 -1 -88 6 l-82 13 -346 400 c-333 385
-347 400 -353 371 -4 -17 -7 -177 -8 -357 l-1 -326 47 -16 c26 -9 65 -16 87
-16 82 0 90 -43 10 -54 -60 -8 -293 -8 -373 0 -49 6 -61 10 -61 25 0 14 13 20
58 28 75 15 104 30 121 66 17 36 28 513 16 690 -9 133 -20 148 -112 159 -63 7
-90 24 -79 51 4 13 34 15 188 15 l183 -1 27 -36z m1839 20 c18 -18 8 -23 -68
-39 -102 -21 -116 -36 -126 -125 -12 -101 0 -725 14 -751 14 -26 68 -48 121
-48 54 0 79 -13 60 -32 -17 -17 -569 -25 -586 -8 -17 17 16 36 74 43 67 8 87
21 100 65 7 22 14 185 17 409 5 302 3 375 -7 388 -20 24 -79 52 -125 59 -53 9
-69 20 -61 41 6 16 30 17 291 14 208 -3 287 -7 296 -16z m726 1 c9 -23 -7 -33
-75 -45 -77 -14 -90 -27 -73 -77 35 -100 275 -651 281 -645 19 21 250 631 250
659 0 31 -29 51 -95 66 -40 9 -61 19 -63 30 -4 22 78 30 268 26 129 -3 145 -5
148 -21 3 -12 -9 -22 -42 -36 -24 -11 -51 -30 -60 -43 -21 -33 -161 -345 -302
-671 l-119 -278 -57 3 c-32 3 -59 6 -61 9 -2 2 -61 141 -132 309 -137 329
-258 602 -280 636 -9 14 -33 26 -64 34 -57 13 -84 36 -60 51 8 5 130 9 272 9
225 0 258 -2 264 -16z m2807 5 c172 -23 246 -89 246 -215 0 -114 -54 -179
-208 -252 l-94 -44 24 -27 c13 -14 95 -106 182 -204 141 -159 179 -195 251
-233 29 -16 24 -38 -10 -45 -16 -4 -80 -7 -141 -8 l-111 -1 -170 198 c-207
241 -273 323 -273 339 0 14 17 18 95 28 160 19 222 87 213 229 -4 70 -21 102
-72 140 -23 17 -45 22 -132 24 -58 2 -117 1 -131 -2 l-25 -7 4 -407 c3 -336 6
-412 18 -437 15 -31 22 -33 148 -51 23 -4 32 -10 32 -24 0 -16 -11 -19 -86
-25 -130 -11 -501 -2 -516 13 -19 19 2 32 68 42 123 17 117 1 122 400 2 179 1
358 -3 399 -9 94 -27 115 -107 124 -31 4 -63 10 -72 13 -19 7 -21 30 -3 37 24
10 677 7 751 -4z m2316 -23 c0 -41 -10 -46 -93 -46 -34 0 -69 -5 -77 -10 -13
-8 -15 -66 -15 -424 0 -482 -7 -450 105 -466 70 -10 91 -23 72 -42 -18 -18
-555 -19 -573 -1 -19 19 7 43 48 43 51 0 102 25 113 56 7 18 10 167 8 422 -3
448 2 422 -91 422 -64 0 -87 13 -87 50 l0 30 295 0 295 0 0 -34z m1275 -82
c-9 -149 -15 -169 -46 -169 -22 0 -24 5 -29 60 -6 67 -20 99 -52 116 -11 6
-77 14 -145 17 l-124 5 3 -409 c2 -287 7 -417 15 -436 12 -27 29 -34 128 -55
61 -12 53 -36 -15 -45 -73 -8 -401 -10 -468 -1 -85 10 -83 53 3 53 22 0 56 8
75 18 l35 17 6 135 c4 74 7 267 8 429 l1 293 -127 -4 c-122 -4 -167 -14 -185
-41 -3 -6 -9 -35 -13 -66 -9 -72 -20 -93 -48 -89 -21 3 -22 8 -25 146 l-3 142
507 0 506 0 -7 -116z"/>
<path d="M14612 22688 c45 -61 1034 -1362 1252 -1648 120 -157 224 -286 231
-288 23 -5 37 13 1073 1366 l461 602 -1521 0 -1520 0 24 -32z m1564 -80 c60
-81 84 -130 67 -135 -21 -7 2 -39 52 -73 25 -17 45 -35 45 -39 0 -5 -13 -11
-30 -14 -16 -4 -30 -11 -30 -16 0 -5 37 -49 82 -98 l82 -88 -57 -5 -57 -5 53
-70 c28 -38 80 -99 115 -134 34 -35 60 -66 57 -69 -2 -3 -28 -7 -56 -10 l-51
-5 108 -108 109 -109 -93 0 c-71 0 -92 -3 -92 -14 0 -20 -46 -26 -192 -26
l-130 0 4 -89 c3 -56 9 -95 18 -106 8 -10 52 -36 99 -59 87 -43 111 -66 69
-66 -33 0 -39 -8 -26 -36 15 -33 6 -39 -32 -19 -43 22 -46 14 -9 -24 21 -22
28 -36 21 -43 -7 -7 -16 -7 -29 0 -14 9 -23 6 -44 -14 l-27 -25 -10 30 c-6 17
-16 31 -23 31 -7 0 -8 -7 -4 -17 3 -10 9 -39 12 -65 6 -47 -2 -59 -23 -38 -7
7 -16 4 -29 -10 -21 -24 -35 -26 -35 -5 0 10 -10 15 -31 15 -27 0 -31 3 -26
23 3 12 8 37 12 55 9 39 -7 43 -24 6 l-12 -26 -25 27 c-19 21 -28 25 -37 16
-14 -14 -37 -15 -37 -1 0 5 14 25 31 45 35 40 35 41 -14 20 -39 -16 -51 -11
-36 17 12 23 4 38 -22 38 -40 0 -13 25 70 66 46 22 90 49 97 59 10 13 14 49
14 113 l0 95 -52 -7 c-123 -15 -289 -19 -311 -8 -12 7 -46 13 -76 14 l-53 3
31 32 c17 18 31 39 31 47 0 8 17 36 38 63 21 26 50 65 66 85 l28 38 -26 10
c-14 5 -26 15 -26 22 0 7 34 55 75 107 41 51 75 99 75 105 0 7 -12 16 -27 22
l-27 9 37 41 c39 44 46 64 23 64 -33 0 -23 23 49 107 41 48 75 97 75 108 0 11
10 36 21 55 34 56 109 150 120 150 5 0 30 -28 55 -62z"/>
<path d="M13897 21823 c-18 -663 0 -2277 28 -2473 49 -352 133 -672 244 -931
22 -51 44 -96 49 -101 6 -6 118 131 294 359 820 1063 978 1274 978 1308 0 9
-96 143 -213 298 -190 252 -1348 1760 -1367 1780 -4 4 -10 -104 -13 -240z
m682 -1020 c24 -33 38 -43 59 -43 64 -1 188 -92 213 -157 5 -13 17 -26 26 -29
46 -16 102 -46 106 -59 3 -7 -9 -32 -26 -54 -29 -38 -32 -47 -32 -124 -1 -92
-21 -149 -74 -209 -27 -31 -31 -43 -31 -92 0 -68 -8 -73 -89 -56 -68 14 -115
0 -117 -36 -1 -11 -7 -36 -13 -57 -15 -43 -7 -60 21 -51 18 5 20 3 14 -12 -31
-80 -47 -214 -26 -214 16 0 27 32 33 93 14 142 130 238 303 253 109 9 234 -3
234 -22 0 -8 -16 -47 -36 -87 -79 -155 -151 -237 -253 -285 -49 -23 -61 -24
-144 -18 -89 7 -90 7 -118 -20 -42 -40 -40 -86 6 -130 31 -29 35 -38 35 -85 0
-29 7 -81 16 -116 l16 -64 -44 -48 c-23 -27 -45 -49 -48 -50 -3 -1 -25 40 -48
89 -24 50 -64 117 -88 151 l-45 60 31 25 c39 33 42 89 6 131 l-24 28 -134 0
c-112 0 -139 3 -173 20 -51 25 -108 83 -135 135 -42 83 -82 298 -61 329 13 20
171 -18 265 -63 127 -62 193 -140 216 -257 6 -30 13 -64 16 -76 2 -13 11 -23
19 -23 24 0 28 44 9 110 -13 46 -15 69 -7 94 7 23 6 44 -3 77 -17 57 -18 56 6
62 22 6 27 26 8 31 -7 2 -37 11 -65 21 -46 15 -59 15 -103 4 -65 -17 -84 -2
-82 65 2 37 -3 51 -28 79 -52 60 -84 143 -84 222 -1 57 -5 76 -23 99 -26 32
-30 68 -9 88 7 8 31 22 54 32 26 12 45 29 53 48 14 34 85 99 136 123 20 10 54
20 76 23 31 4 43 12 56 34 9 17 24 41 34 54 16 21 21 22 42 11 13 -6 37 -31
54 -54z"/>
<path d="M14453 20575 c-12 -8 -23 -25 -25 -38 -2 -16 -10 -22 -28 -22 -65 -1
-100 -43 -100 -119 0 -40 4 -48 25 -58 18 -8 24 -16 19 -27 -16 -36 -5 -66 36
-103 53 -47 99 -59 118 -30 l14 21 27 -20 c35 -26 70 -18 117 26 26 25 34 41
34 67 0 19 -5 39 -12 46 -9 9 -8 12 4 12 50 0 65 89 26 147 -27 38 -43 46 -67
33 -22 -11 -31 -4 -31 26 0 13 -10 30 -22 38 -29 20 -107 21 -135 1z m121
-125 c45 -40 58 -77 41 -118 -28 -65 -113 -81 -170 -31 -28 25 -35 38 -35 68
1 42 13 61 60 90 47 28 63 27 104 -9z"/>
<path d="M18164 21883 c-156 -198 -883 -1141 -1237 -1606 -151 -197 -225 -302
-220 -311 33 -54 1286 -1655 1293 -1651 14 8 85 200 141 378 98 314 143 530
159 758 13 194 25 2521 13 2573 l-8 38 -141 -179z m-488 -1111 c102 -74 189
-216 188 -306 -1 -59 -31 -134 -80 -203 -56 -78 -44 -84 40 -18 76 58 117 70
184 50 82 -25 242 -168 242 -217 0 -25 -149 -175 -205 -206 -68 -38 -202 -14
-288 52 -19 14 -37 26 -40 26 -12 0 -7 -46 9 -91 19 -55 21 -178 4 -246 -12
-45 -11 -65 3 -145 20 -112 12 -152 -39 -203 -40 -40 -75 -45 -131 -19 -59 29
-67 51 -57 162 10 116 10 168 -1 287 -6 71 -4 106 10 168 9 43 15 80 12 83 -3
3 -24 -8 -47 -25 -86 -62 -218 -83 -290 -46 -52 27 -200 174 -200 200 0 56
151 192 244 220 63 19 109 8 167 -41 44 -37 78 -58 84 -52 2 2 -16 35 -41 73
-61 94 -79 159 -64 228 25 121 105 233 202 280 44 22 49 21 94 -11z"/>
<path d="M17730 20492 l0 -90 -45 -58 c-25 -31 -45 -61 -45 -66 0 -4 13 -8 28
-8 32 0 75 39 91 83 14 37 14 117 0 173 -19 73 -29 61 -29 -34z"/>
<path d="M17416 20049 c-46 -37 -121 -59 -199 -60 l-72 -1 55 -26 c95 -44 199
-24 254 51 18 24 18 29 5 42 -14 14 -18 13 -43 -6z"/>
<path d="M18050 20063 c-8 -3 -24 -14 -35 -24 -31 -28 -74 -41 -160 -48 l-80
-6 42 -23 c31 -16 59 -22 106 -22 54 0 70 4 103 28 50 37 66 57 62 78 -3 19
-16 25 -38 17z"/>
<path d="M15881 20452 c-89 -24 -105 -31 -113 -52 -14 -38 -6 -656 9 -671 10
-10 30 -5 92 20 45 17 108 34 141 38 l60 6 0 343 0 344 -42 -1 c-24 0 -90 -12
-147 -27z"/>
<path d="M16144 20469 c-4 -6 -9 -164 -12 -350 l-5 -339 72 0 c56 0 89 -7 153
-31 65 -26 82 -29 89 -18 11 17 12 670 1 684 -9 13 -216 65 -259 65 -17 0 -35
-5 -39 -11z"/>
<path d="M16652 20348 c-80 -80 -85 -80 -97 -2 -8 56 -21 63 -29 16 -8 -48 -6
-638 3 -676 8 -38 31 -47 31 -12 0 46 34 31 90 -39 54 -68 101 -105 85 -69 -4
11 -16 46 -27 79 -27 85 -41 102 -96 118 l-47 14 -3 217 c-2 213 -2 216 18
216 25 0 72 23 89 44 16 19 71 166 62 166 -3 0 -39 -33 -79 -72z"/>
<path d="M15660 20390 c-8 -5 -17 -32 -20 -62 -5 -49 -7 -53 -32 -56 -23 -3
-31 3 -45 32 -19 41 -48 48 -59 14 -17 -56 4 -188 30 -188 7 0 20 18 29 40 13
35 20 40 46 40 l31 0 0 -220 0 -220 -24 0 c-27 0 -51 20 -61 49 -9 29 -33 33
-47 8 -15 -26 -14 -131 1 -169 14 -36 32 -35 53 3 14 24 23 30 45 27 22 -2 29
-9 33 -33 l5 -29 23 28 c22 29 22 31 22 382 0 194 -4 355 -8 358 -4 2 -14 1
-22 -4z"/>
<path d="M15915 19706 c-94 -30 -164 -67 -200 -106 l-30 -31 150 6 c83 4 155
8 161 10 10 3 54 115 54 137 0 15 -64 7 -135 -16z"/>
<path d="M16171 19704 c6 -16 20 -53 31 -81 l19 -53 151 0 c112 0 149 3 146
12 -14 40 -219 136 -311 146 l-47 5 11 -29z"/>
<path d="M16086 19651 c-4 -5 -13 -29 -21 -51 -20 -55 -7 -80 40 -80 34 0 35
1 35 43 0 62 -35 119 -54 88z"/>
<path d="M16017 19108 c-105 -128 -1171 -1513 -1236 -1606 l-23 -33 24 -35
c51 -71 288 -322 443 -467 240 -225 485 -402 715 -515 156 -77 166 -77 343 11
337 168 671 435 1048 840 l139 148 -62 82 c-339 448 -1170 1526 -1262 1639
-17 21 -34 38 -38 38 -4 0 -45 -46 -91 -102z m231 -393 c37 -9 85 -26 107 -38
37 -21 40 -26 38 -63 -1 -21 -24 -111 -52 -199 l-49 -160 26 -24 c24 -21 31
-23 94 -16 l68 6 -20 -51 c-31 -79 -28 -91 35 -128 30 -18 55 -37 55 -42 0 -4
-20 -18 -45 -30 -27 -13 -58 -40 -80 -70 -52 -71 -138 -146 -190 -165 l-45
-18 0 -108 c0 -114 5 -126 42 -92 17 15 18 14 18 -36 0 -36 -8 -67 -27 -104
-26 -50 -27 -59 -31 -245 -5 -209 0 -232 39 -196 45 41 91 160 93 239 l1 50
55 6 c63 7 85 16 120 54 21 22 25 36 25 85 0 54 -3 62 -35 95 -19 19 -49 41
-67 47 -18 7 -33 15 -33 18 0 4 28 20 62 36 76 36 147 105 183 177 14 30 38
105 53 166 l28 112 49 -73 c66 -95 208 -244 259 -270 37 -19 39 -22 22 -32
-68 -40 -97 -87 -76 -126 14 -26 99 -50 177 -50 35 0 63 -3 63 -6 0 -3 -24
-33 -54 -65 -58 -64 -107 -148 -135 -232 l-18 -52 -95 0 c-86 0 -98 -2 -137
-28 -49 -32 -101 -109 -101 -148 0 -49 -8 -58 -43 -48 -63 18 -168 11 -224
-15 -105 -49 -194 -174 -209 -292 -9 -75 -18 -80 -112 -63 l-77 14 -7 58 c-16
127 -57 206 -139 264 -59 42 -111 51 -224 41 -98 -8 -105 -5 -105 46 0 52 -38
114 -87 143 -37 21 -59 26 -117 27 -39 1 -82 -1 -95 -4 -22 -5 -26 0 -46 65
-27 89 -64 152 -131 225 -30 31 -51 60 -47 64 3 3 26 6 49 6 98 0 194 38 194
78 0 8 -22 37 -49 63 l-49 47 54 38 c64 43 177 161 241 251 25 35 49 63 53 63
9 0 15 -24 25 -105 10 -77 61 -189 112 -246 29 -32 71 -63 114 -85 38 -19 69
-38 69 -43 0 -5 -13 -14 -30 -21 -37 -15 -97 -81 -106 -115 -9 -35 2 -68 33
-106 33 -38 79 -59 132 -59 l39 0 -1 -72 c-1 -79 25 -152 76 -213 33 -39 45
-27 57 57 12 85 -1 161 -39 233 -22 42 -31 71 -31 106 0 27 2 49 5 49 3 0 17
-7 30 -16 23 -15 24 -15 29 18 3 18 8 97 11 176 l6 142 -48 21 c-67 29 -141
88 -198 159 -33 41 -64 68 -98 84 l-50 24 66 43 c38 25 67 51 67 60 0 9 -9 36
-20 60 -29 66 -29 66 45 55 60 -8 68 -7 93 11 36 27 34 40 -32 251 -53 172
-53 173 -33 187 80 56 291 80 425 50z"/>
<path d="M15980 18194 c0 -4 17 -21 37 -39 42 -36 40 -42 -22 -85 l-45 -31
-43 26 c-24 14 -47 25 -50 25 -14 0 -6 -33 14 -62 l22 -30 -27 -25 c-14 -13
-24 -28 -21 -34 9 -14 41 -11 55 6 19 23 53 18 101 -16 24 -18 46 -34 48 -36
3 -2 -13 -21 -34 -43 l-39 -40 29 0 c17 0 41 9 55 20 32 25 32 25 76 -5 37
-25 74 -33 74 -16 0 5 -18 25 -40 45 l-40 36 60 40 c32 22 62 40 66 40 3 0 22
-14 41 -30 28 -25 38 -29 49 -19 22 18 17 37 -16 54 -16 9 -30 21 -30 28 0 7
14 23 30 35 59 44 27 70 -36 31 -21 -13 -41 -18 -54 -14 -27 9 -80 54 -80 68
0 7 16 23 36 35 26 17 33 27 26 34 -8 8 -28 5 -69 -10 l-58 -22 -27 20 c-25
19 -88 28 -88 14z m171 -145 c27 -22 49 -45 49 -49 0 -9 -96 -80 -108 -80 -4
0 -27 18 -52 40 l-45 40 50 45 c27 25 51 45 53 45 2 0 26 -18 53 -41z"/>
<path d="M15412 17745 c-35 -77 -39 -255 -7 -361 8 -26 12 -50 10 -53 -3 -2
-38 12 -78 32 -80 40 -112 46 -121 21 -9 -23 -1 -30 48 -47 59 -20 134 -69
241 -158 217 -180 315 -233 315 -171 0 13 -22 31 -69 57 -38 21 -99 63 -135
94 -61 53 -65 58 -65 101 0 25 7 81 15 125 28 140 28 145 10 145 -23 0 -54
-55 -67 -120 -17 -84 -24 -90 -42 -34 -42 131 -45 195 -17 296 25 92 25 98 -3
98 -16 0 -28 -9 -35 -25z"/>
<path d="M16737 17718 c25 -82 22 -225 -7 -321 -12 -42 -25 -75 -27 -73 -3 2
-11 30 -19 63 -19 76 -43 131 -61 137 -24 9 -26 -21 -5 -76 27 -72 35 -130 27
-180 -9 -54 -91 -137 -189 -193 -76 -44 -98 -67 -79 -86 23 -23 133 45 306
190 99 83 197 147 249 163 26 8 38 17 38 30 0 33 -28 31 -106 -6 -42 -20 -80
-36 -84 -36 -4 0 1 32 11 72 39 148 9 368 -51 368 -18 0 -18 -2 -3 -52z"/>
<path d="M19060 16174 c0 -13 54 -104 61 -104 10 0 29 34 29 53 0 7 -17 23
-39 35 -40 23 -51 26 -51 16z"/>
<path d="M13120 16149 c-30 -18 -57 -33 -59 -36 -3 -2 9 -17 26 -34 l30 -31
37 58 c53 86 50 90 -34 43z"/>
<path d="M13355 15959 c-57 -58 -59 -61 -41 -75 26 -19 30 -18 64 11 47 39 81
125 49 125 -7 0 -39 -27 -72 -61z"/>
<path d="M18266 15512 c-6 -10 46 -103 68 -121 32 -26 49 24 25 72 -22 43 -78
72 -93 49z"/>
<path d="M18387 15354 c-16 -16 66 -134 94 -134 19 0 39 28 39 55 0 29 -65 85
-97 85 -16 0 -32 -3 -36 -6z"/>
<path d="M18123 15225 c3 -11 11 -39 17 -62 12 -49 18 -52 48 -20 l22 23 -28
25 c-15 14 -36 31 -46 39 -17 14 -18 13 -13 -5z"/>
<path d="M14401 14976 l-43 -44 26 -17 c14 -10 32 -15 40 -12 12 5 33 104 23
113 -2 2 -23 -16 -46 -40z"/>
<path d="M17340 14808 c0 -46 13 -98 24 -98 6 0 19 7 30 15 18 14 17 16 -10
59 -32 51 -44 57 -44 24z"/>
<path d="M16605 14750 c-6 -11 0 -103 11 -162 12 -61 67 -5 68 68 1 62 -56
131 -79 94z"/>
<path d="M15512 14758 c-12 -15 -65 -318 -57 -326 3 -3 18 -2 33 4 45 15 73
86 79 203 4 73 2 105 -7 116 -15 18 -34 19 -48 3z"/>
<path d="M15807 14732 c-25 -29 -38 -100 -39 -213 0 -85 3 -114 16 -134 20
-31 31 -31 51 -1 30 45 41 257 19 338 -7 24 -30 29 -47 10z"/>
<path d="M6633 14355 c-346 -71 -595 -199 -827 -424 -347 -337 -567 -856 -617
-1457 -17 -207 -7 -665 19 -829 123 -780 479 -1405 1000 -1753 197 -132 405
-222 622 -267 180 -38 596 -35 785 5 469 102 832 350 1095 750 227 346 362
802 400 1348 28 420 -3 851 -85 1161 -181 682 -622 1178 -1238 1390 -233 80
-403 101 -801 100 -212 0 -254 -3 -353 -24z"/>
<path d="M15440 12651 c-259 -56 -477 -217 -605 -446 -80 -142 -123 -305 -144
-545 -12 -131 -6 -186 20 -201 51 -27 248 -34 929 -34 382 0 717 4 743 8 l49
8 -7 87 c-42 564 -206 935 -475 1072 -128 65 -346 87 -510 51z"/>
<path d="M18830 12655 c-320 -65 -565 -285 -685 -615 -49 -138 -66 -233 -72
-417 -5 -144 -3 -173 8 -173 8 0 95 -7 194 -15 130 -11 335 -14 735 -14 564 1
783 7 799 24 12 13 -4 248 -24 370 -51 302 -151 524 -302 672 -86 84 -197 145
-308 168 -85 18 -257 18 -345 0z"/>
</g>
</svg>
