<?xml version="1.0" standalone="no"?>
<!DOCTYPE svg PUBLIC "-//W3C//DTD SVG 20010904//EN"
 "http://www.w3.org/TR/2001/REC-SVG-20010904/DTD/svg10.dtd">
<svg version="1.0" xmlns="http://www.w3.org/2000/svg"
 width="199.000000pt" height="253.000000pt" viewBox="0 0 199.000000 253.000000"
 preserveAspectRatio="xMidYMid meet">
<metadata>
Created by potrace 1.16, written by Peter Selinger 2001-2019
</metadata>
<g transform="translate(0.000000,253.000000) scale(0.100000,-0.100000)"
fill="#000000" stroke="none">
<path d="M962 2468 c-16 -29 -48 -88 -71 -131 -36 -66 -46 -76 -64 -72 -64 14
-150 26 -154 21 -3 -3 13 -101 35 -218 23 -116 40 -213 39 -215 -2 -1 -52 36
-112 82 -60 47 -111 85 -115 85 -3 0 -23 -29 -43 -66 -28 -48 -42 -64 -55 -60
-46 13 -215 46 -219 43 -2 -3 17 -51 42 -107 25 -56 45 -106 45 -110 0 -4 -22
-25 -50 -46 -27 -21 -50 -43 -50 -49 0 -6 29 -39 64 -74 l64 -64 69 45 c303
201 668 237 1010 102 83 -33 192 -95 239 -136 l35 -31 72 71 71 71 -59 54 -59
54 47 108 c26 60 45 110 43 112 -4 4 -176 -30 -217 -43 -12 -3 -27 13 -55 61
-21 36 -41 65 -45 65 -4 0 -55 -39 -114 -86 -58 -47 -108 -84 -109 -82 -2 1
14 99 36 217 21 117 37 215 35 218 -3 2 -42 -3 -88 -12 -45 -8 -86 -12 -90 -8
-4 5 -37 63 -74 131 -37 67 -68 122 -70 122 -2 0 -17 -24 -33 -52z"/>
<path d="M840 1543 c-115 -19 -320 -105 -388 -163 l-24 -20 42 -49 42 -50 32
23 c142 106 352 159 540 136 142 -17 256 -62 389 -153 16 -10 23 -6 57 33 l40
45 -36 32 c-71 63 -221 130 -357 158 -63 14 -274 19 -337 8z"/>
<path d="M841 1260 c-76 -20 -216 -89 -216 -106 0 -6 16 -29 36 -52 l36 -42
68 35 c90 45 160 59 265 52 89 -5 158 -27 230 -72 22 -14 41 -25 44 -25 2 0
21 21 42 46 l38 47 -25 20 c-42 34 -139 78 -217 98 -95 24 -205 24 -301 -1z"/>
<path d="M950 979 c-59 -24 -84 -82 -60 -140 17 -41 47 -59 98 -59 126 0 136
179 12 204 -14 3 -36 1 -50 -5z"/>
<path d="M127 462 c-158 -91 -163 -339 -9 -429 62 -37 158 -40 212 -6 39 24
84 93 78 121 -3 12 -10 5 -22 -23 -23 -55 -53 -83 -98 -95 -54 -15 -109 2
-147 45 -39 45 -46 71 -46 170 1 166 95 269 199 220 28 -14 43 -31 64 -76 15
-32 30 -59 33 -59 7 0 -1 152 -8 160 -2 2 -8 -2 -13 -10 -7 -12 -15 -12 -43
-2 -61 22 -146 15 -200 -16z"/>
<path d="M1555 465 c22 -21 25 -33 25 -100 0 -68 -9 -91 -25 -65 -11 18 -107
11 -141 -9 -59 -36 -82 -135 -48 -207 28 -59 129 -93 185 -63 15 7 24 7 34 -1
9 -8 29 -9 54 -5 39 6 39 7 20 26 -18 18 -19 35 -19 234 l0 215 -55 0 -54 0
24 -25z m-20 -171 c29 -11 45 -60 45 -134 0 -112 -35 -157 -101 -129 -57 23
-83 118 -54 194 23 63 62 87 110 69z"/>
<path d="M1680 410 l0 -70 30 0 30 0 0 70 0 70 -30 0 -30 0 0 -70z"/>
<path d="M1890 410 l0 -70 30 0 30 0 0 70 0 70 -30 0 -30 0 0 -70z"/>
<path d="M1805 448 c-4 -10 -13 -18 -21 -18 -20 0 -17 -27 4 -42 11 -7 21 -20
25 -28 5 -13 6 -13 6 0 1 9 10 22 21 30 22 16 27 40 9 40 -7 0 -18 8 -25 18
-12 16 -13 16 -19 0z"/>
<path d="M457 294 c-20 -11 -27 -22 -25 -37 4 -32 38 -28 58 8 29 52 82 43 95
-16 10 -46 -13 -73 -76 -87 -29 -7 -61 -20 -71 -29 -18 -16 -24 -68 -10 -89
21 -32 90 -44 136 -23 18 9 29 9 38 1 7 -5 67 -10 137 -11 l124 -1 -27 21
c-24 19 -26 26 -26 105 0 96 16 140 54 150 69 17 88 -16 84 -149 -3 -84 -6
-101 -22 -113 -18 -13 -12 -14 54 -14 l74 0 -22 20 c-20 19 -22 31 -22 118 0
58 -5 107 -13 122 -18 36 -72 47 -133 27 -39 -13 -50 -13 -58 -3 -7 9 -26 11
-54 8 l-43 -4 20 -20 c19 -17 21 -30 21 -127 0 -87 -3 -111 -16 -122 -9 -7
-18 -9 -22 -3 -4 5 -18 9 -32 9 -25 0 -25 0 -30 118 -5 110 -7 120 -29 138
-29 24 -123 25 -164 3z m129 -210 c-4 -20 -17 -41 -31 -50 -23 -15 -27 -15
-50 0 -44 29 -29 83 33 115 l37 19 9 -24 c4 -14 5 -41 2 -60z"/>
<path d="M1103 298 c-27 -13 -37 -36 -22 -54 19 -23 38 -16 53 21 12 27 21 35
40 35 48 0 75 -80 39 -112 -10 -9 -42 -21 -71 -28 -57 -13 -82 -38 -82 -81 0
-39 42 -69 94 -69 23 0 47 5 54 12 9 9 18 9 37 0 35 -16 77 -15 101 2 18 13
17 14 -16 13 l-35 -2 -5 118 c-5 110 -7 120 -29 138 -26 21 -120 26 -158 7z
m127 -174 c0 -52 -12 -79 -41 -94 -27 -15 -69 11 -69 43 0 30 70 95 103 97 4
0 7 -21 7 -46z"/>
<path d="M1745 300 c-35 -13 -50 -37 -35 -55 20 -24 39 -17 54 20 12 27 21 35
40 35 47 0 75 -79 41 -114 -9 -8 -32 -18 -53 -22 -99 -18 -132 -75 -77 -130
23 -23 31 -25 78 -20 65 7 72 7 128 0 33 -4 48 -2 57 9 11 13 8 15 -20 14
l-33 -2 -3 117 c-3 113 -4 118 -29 138 -27 21 -107 27 -148 10z m113 -186 c-3
-48 -7 -60 -29 -77 -21 -15 -31 -17 -47 -8 -27 15 -37 48 -22 76 11 20 74 64
93 65 4 0 7 -25 5 -56z"/>
</g>
</svg>
